<svg xmlns="http://www.w3.org/2000/svg" xmlns:xlink="http://www.w3.org/1999/xlink" width="151.543" height="30.038" viewBox="0 0 151.543 30.038">
  <defs>
    <linearGradient id="linear-gradient" x1="-1.577" y1="33.324" x2="-1.549" y2="33.324" gradientUnits="objectBoundingBox">
      <stop offset="0" stop-color="#bcbec0"/>
      <stop offset="0.698" stop-color="#939598"/>
      <stop offset="1" stop-color="#939598"/>
    </linearGradient>
    <linearGradient id="linear-gradient-2" x1="-1.656" y1="43.811" x2="-1.629" y2="43.811" gradientUnits="objectBoundingBox">
      <stop offset="0" stop-color="#fff"/>
      <stop offset="1" stop-color="#bcbec0"/>
    </linearGradient>
    <linearGradient id="linear-gradient-3" x1="-3.967" y1="33.337" x2="-3.94" y2="33.337" xlink:href="#linear-gradient"/>
    <linearGradient id="linear-gradient-4" x1="-4.05" y1="43.833" x2="-4.022" y2="43.833" xlink:href="#linear-gradient-2"/>
    <linearGradient id="linear-gradient-5" x1="-2.622" y1="41.321" x2="-2.596" y2="41.321" xlink:href="#linear-gradient-2"/>
    <linearGradient id="linear-gradient-6" x1="-2.619" y1="39.357" x2="-2.593" y2="39.357" gradientUnits="objectBoundingBox">
      <stop offset="0" stop-color="#bcbec0"/>
      <stop offset="0.896" stop-color="#939598"/>
      <stop offset="1" stop-color="#939598"/>
    </linearGradient>
    <linearGradient id="linear-gradient-7" x1="-4.992" y1="41.568" x2="-4.965" y2="41.568" xlink:href="#linear-gradient-2"/>
    <linearGradient id="linear-gradient-8" x1="-5.136" y1="43.648" x2="-5.109" y2="43.648" gradientUnits="objectBoundingBox">
      <stop offset="0" stop-color="#bcbec0"/>
      <stop offset="0.901" stop-color="#939598"/>
      <stop offset="1" stop-color="#939598"/>
    </linearGradient>
    <linearGradient id="linear-gradient-9" x1="-7.097" y1="40.036" x2="-7.067" y2="40.036" xlink:href="#linear-gradient-2"/>
    <linearGradient id="linear-gradient-10" x1="-7.056" y1="47.036" x2="-7.026" y2="47.036" xlink:href="#linear-gradient-8"/>
  </defs>
  <g id="g10" transform="translate(-5.681 -132.519)">
    <g id="g3627" transform="translate(5.681 132.519)">
      <g id="g12" transform="translate(111.976 0)">
        <path id="path14" d="M-38.9,161.982h9.138l17.788-30.038h-9.138Z" transform="translate(38.899 -131.944)" fill="#cd3029"/>
      </g>
      <g id="g16" transform="translate(124.567 0)">
        <path id="path18" d="M-43.708,161.982h9.187l17.788-30.038h-9.138Z" transform="translate(43.708 -131.944)" fill="#cd3029"/>
      </g>
      <g id="g20" transform="translate(0 6.749)">
        <g id="Group_2944" data-name="Group 2944">
          <g id="Group_2943" data-name="Group 2943">
            <g id="Group_2942" data-name="Group 2942">
              <g id="g22">
                <g id="g28" transform="translate(0.009 0.057)">
                  <path id="path30" d="M.923,189.232c-.44,0-.782-.5-.782-1.153v-10.13c0-.552.342-1.153.782-1.153l14.954.1c4.2,0,7.624,2.808,7.624,6.118,0,3.46-3.421,6.118-7.624,6.118Zm12.9-2.858a3.4,3.4,0,1,0,0-6.72H6.1c-.2,0-.342.3-.342.552v5.416c-.049.351.147.652.342.652h7.721Z" transform="translate(-0.141 -176.796)" fill="#262626"/>
                </g>
                <g id="g32" transform="translate(0 0.003)">
                  <path id="path34" d="M.782,189.182c-.44,0-.782-.5-.782-1.153v-10.08c0-.552.342-1.153.782-1.153l14.905.1c4.2,0,7.624,2.808,7.624,6.118,0,3.36-3.421,6.118-7.624,6.118Zm12.9-2.758a3.4,3.4,0,1,0,0-6.72l-7.77-.1c-.2,0-.342.3-.342.552v5.566c0,.351.147.552.342.552Z" transform="translate(0 -176.796)" fill="#313131"/>
                </g>
                <g id="g36" transform="translate(0.088)">
                  <path id="path38" d="M.923,189.227c-.44,0-.782-.5-.782-1.153v-9.979c0-.552.342-1.153.782-1.153l14.807.1c4.2,0,7.575,2.708,7.575,6.068s-3.421,6.068-7.575,6.068Zm12.8-2.658a3.5,3.5,0,1,0,0-6.92H5.859c-.2,0-.44.3-.44.652v5.667c0,.351.147.652.44.652Z" transform="translate(-0.141 -176.941)" fill="#3c3c3c"/>
                </g>
                <g id="g40" transform="translate(0.176 0.297)">
                  <path id="path42" d="M1.016,189.942c-.44,0-.733-.5-.733-1.053V179.01c0-.552.342-1.053.733-1.053l14.758.05c4.154,0,7.575,2.708,7.575,6.068s-3.323,6.068-7.575,6.068Zm12.706-2.608c2.248,0,4.007-1.5,4.007-3.46a3.743,3.743,0,0,0-4.007-3.46l-7.819-.1c-.2,0-.44.3-.44.652v5.717c0,.351.147.652.44.652Z" transform="translate(-0.283 -177.957)" fill="#474747"/>
                </g>
                <g id="g44" transform="translate(0.167 0.194)">
                  <path id="path46" d="M.874,189.8c-.44,0-.733-.5-.733-1.053v-9.879c0-.552.342-1.053.733-1.053l14.661.1c4.154,0,7.477,2.708,7.477,5.917s-3.323,5.917-7.477,5.917H.874ZM13.58,187.29a3.769,3.769,0,0,0,4.056-3.56,3.869,3.869,0,0,0-4.056-3.56H5.615c-.2,0-.44.3-.44.652v5.867c0,.351.2.652.44.652C5.664,187.29,13.58,187.29,13.58,187.29Z" transform="translate(-0.141 -177.812)" fill="#515151"/>
                </g>
                <g id="g48" transform="translate(0.206 0.19)">
                  <path id="path50" d="M.874,189.842c-.44,0-.733-.5-.733-1.053V179.01c0-.552.342-1.053.733-1.053l14.612.1c4.154,0,7.477,2.708,7.477,5.917,0,3.26-3.323,5.917-7.477,5.917Zm12.755-2.407a3.635,3.635,0,1,0,0-7.221H5.566c-.2,0-.44.3-.44.652v5.917c0,.351.2.652.44.652Z" transform="translate(-0.141 -177.957)" fill="#5c5c5c"/>
                </g>
                <g id="g52" transform="translate(0.294 0.236)">
                  <path id="path54" d="M1.016,190.082c-.44,0-.733-.5-.733-1.053V179.3c0-.552.342-1.053.733-1.053l14.514.1c4.056,0,7.428,2.558,7.428,5.867,0,3.26-3.323,5.867-7.428,5.867Zm12.657-2.307a3.971,3.971,0,0,0,4.154-3.661,3.909,3.909,0,0,0-4.154-3.661H5.512c-.2,0-.44.3-.44.652v6.068c0,.351.2.652.44.652Z" transform="translate(-0.283 -178.247)" fill="#676767"/>
                </g>
                <g id="g56" transform="translate(0.285 0.283)">
                  <path id="path58" d="M.874,190.222c-.44,0-.733-.5-.733-1.053v-9.578c0-.552.342-1.053.733-1.053H15.389c4.056,0,7.428,2.558,7.428,5.867s-3.323,5.867-7.428,5.867H.874Zm12.657-2.206a3.915,3.915,0,0,0,4.154-3.711,4.011,4.011,0,0,0-4.154-3.711H5.37c-.2-.05-.44.251-.44.6v6.118c0,.351.2.652.44.652Z" transform="translate(-0.141 -178.538)" fill="#727272"/>
                </g>
                <g id="g60" transform="translate(0.324 0.38)">
                  <path id="path62" d="M.874,190.557c-.44,0-.733-.5-.733-1.053v-9.478c0-.552.342-1.053.733-1.053H15.291c4.056,0,7.33,2.558,7.33,5.767,0,3.159-3.274,5.767-7.33,5.767l-14.416.05Zm12.559-2.206a3.74,3.74,0,1,0,0-7.422l-8.21-.1c-.2,0-.44.3-.44.652V187.7c0,.351.2.652.44.652Z" transform="translate(-0.141 -178.973)" fill="#7c7c7c"/>
                </g>
                <g id="g64" transform="translate(0.412 0.326)">
                  <path id="path66" d="M1.016,190.507c-.44,0-.733-.5-.733-1.053v-9.428c0-.552.342-1.053.733-1.053l14.319.1c4.056,0,7.33,2.558,7.33,5.767,0,3.159-3.274,5.767-7.33,5.767ZM13.575,188.5a3.875,3.875,0,1,0,0-7.723H5.219c-.2,0-.44.3-.44.652V187.8c0,.351.2.652.44.652h8.357Z" transform="translate(-0.283 -178.973)" fill="#878787"/>
                </g>
                <g id="g68" transform="translate(0.354 0.323)">
                  <path id="path70" d="M.733,190.5c-.44,0-.733-.5-.733-1.053v-9.277c0-.552.342-1.053.733-1.053l14.27.1c4.007,0,7.281,2.507,7.281,5.667S19.01,190.552,15,190.552Zm12.608-1.855a3.884,3.884,0,1,0,0-7.723l-8.357-.05c-.2,0-.44.3-.44.652v6.369c0,.351.2.652.44.652Z" transform="translate(0 -179.118)" fill="#929292"/>
                </g>
                <g id="g72" transform="translate(0.442 0.319)">
                  <path id="path74" d="M.874,190.647c-.44,0-.733-.5-.733-1.053v-9.277c0-.552.293-1.053.733-1.053l14.172.1c4.007,0,7.281,2.507,7.281,5.667s-3.274,5.667-7.281,5.667Zm12.51-1.855a3.929,3.929,0,1,0,0-7.823l-8.454-.05c-.2,0-.44.3-.44.652v6.419c0,.351.2.652.44.652Z" transform="translate(-0.141 -179.263)" fill="#9d9d9d"/>
                </g>
                <g id="g76" transform="translate(0.481 0.316)">
                  <path id="path78" d="M.874,190.742c-.44,0-.733-.5-.733-1.053v-9.227c0-.552.293-1.053.733-1.053l14.123.1c4.007,0,7.184,2.507,7.184,5.566S19,190.642,15,190.642Zm12.462-1.705a4.122,4.122,0,0,0,4.349-3.912,4.27,4.27,0,0,0-4.349-4.012l-8.5-.1c-.2,0-.44.3-.44.8v6.519c0,.351.2.8.44.8Z" transform="translate(-0.141 -179.408)" fill="#a8a8a8"/>
                </g>
                <g id="g80" transform="translate(0.472 0.312)">
                  <path id="path82" d="M.733,190.787c-.342,0-.733-.5-.733-1.053v-9.127c0-.552.293-1.053.733-1.053l14.025.1c3.91,0,7.184,2.507,7.184,5.566s-3.176,5.566-7.184,5.566Zm12.413-1.655a4.025,4.025,0,1,0,0-8.024l-8.552-.05c-.2,0-.44.3-.44.8v6.619c0,.351.2.8.44.8Z" transform="translate(0 -179.554)" fill="#b3b3b3"/>
                </g>
              </g>
            </g>
          </g>
        </g>
      </g>
      <g id="g84" transform="translate(0.592 11.277)">
        <g id="g86">
          <g id="g92">
            <g id="g94">
              <path id="path106" d="M189.833-373.163c-.049,1.2-.147,2.507-.147,3.661h0c0,1.2.2,1.5.782,1.5h10.947c2.883,0,5.376.1,7.281-1.053h0a6.514,6.514,0,0,0,2.981-3.911h0c.049-.552.049-1.655-.147-1.655h0c-.2,0-3.47.8-3.763.853h0c-.147,0-.2.552-.2.552h0A4.469,4.469,0,0,1,204.3-369.2h-9.09a1.109,1.109,0,0,1-1.222-1.153h0c0-.853-.049-2.307-.049-3.009h0c0-.3-.049-.853-.049-1.7h0c-.049.8-.342,1.2-.635,1.2h-2.492c-.635,0-.635-.3-.733-1.354h0a7.7,7.7,0,0,0-.2,2.056" transform="translate(-189.686 375.219)" fill="url(#linear-gradient)"/>
            </g>
          </g>
        </g>
      </g>
      <g id="g108" transform="translate(0.543 7.312)">
        <g id="g110">
          <g id="g116">
            <g id="g118">
              <path id="path126" d="M190.327-386.693c-.342,0-.782-.1-.782.8h0c0,.8.147,3.911.2,4.714H193.5c.049-.351.147-2.558.147-2.858h0c0-.3-.049-1.454.929-1.454h7.428c1.222,0,5.376.5,5.376,4.363h4.154a3.985,3.985,0,0,0-.342-2.006h0c-.44-.8-1.759-2.808-5.815-3.36h0c-.88-.1-8.21-.2-12.413-.2h-2.639" transform="translate(-189.545 386.696)" fill="url(#linear-gradient-2)"/>
            </g>
          </g>
        </g>
      </g>
      <g id="g128" transform="translate(4.656 6.749)">
        <g id="Group_2947" data-name="Group 2947" transform="translate(0)">
          <g id="Group_2946" data-name="Group 2946">
            <g id="Group_2945" data-name="Group 2945">
              <g id="g130">
                <g id="g136" transform="translate(0 8.106)">
                  <path id="path138" d="M.99,207.356c0,.351.049.652.489.652H9.64a4.474,4.474,0,0,0,4.447-2.156c.586-.8.147-.852-.342-.351-.44.5-1.222,1.655-4.056,1.655H2.065c-.293,0-.44-.3-.489-.351-.147-.1-.586-.3-.586.552" transform="translate(-0.99 -205.176)" fill="#fff"/>
                </g>
                <g id="g140" transform="translate(48.071 0.057)">
                  <path id="path142" d="M-18.738,189.232c-.44,0-.782-.5-.782-1.153v-10.13c0-.552.342-1.153.782-1.153l14.954.1c4.2,0,7.624,2.808,7.624,6.118,0,3.46-3.421,6.118-7.624,6.118Zm12.853-2.858a3.641,3.641,0,0,0,3.91-3.36,3.672,3.672,0,0,0-3.91-3.36h-7.721c-.2,0-.342.3-.342.552v5.416c0,.3.147.552.342.552C-13.509,186.374-5.886,186.374-5.886,186.374Z" transform="translate(19.52 -176.796)" fill="#262626"/>
                </g>
                <g id="g144" transform="translate(48.111 0.003)">
                  <path id="path146" d="M-18.738,189.182c-.44,0-.782-.5-.782-1.153v-10.08c0-.552.342-1.153.782-1.153l14.905.1c4.2,0,7.624,2.808,7.624,6.118,0,3.36-3.421,6.118-7.624,6.118Zm12.853-2.758a3.641,3.641,0,0,0,3.91-3.36,3.672,3.672,0,0,0-3.91-3.36h-7.77c-.2,0-.342.3-.342.552v5.566c0,.351.147.552.342.552h7.77S-5.886,186.424-5.886,186.424Z" transform="translate(19.52 -176.796)" fill="#313131"/>
                </g>
                <g id="g148" transform="translate(48.15)">
                  <path id="path150" d="M-18.738,189.227c-.44,0-.782-.5-.782-1.153v-9.979c0-.552.342-1.153.782-1.153l14.807.1c4.2,0,7.575,2.708,7.575,6.068s-3.421,6.068-7.575,6.068Zm12.8-2.658a3.743,3.743,0,0,0,4.007-3.46,3.777,3.777,0,0,0-4.007-3.46h-7.819c-.2,0-.44.3-.44.652v5.667c0,.351.147.652.44.652Z" transform="translate(19.52 -176.941)" fill="#3c3c3c"/>
                </g>
                <g id="g152" transform="translate(48.189 0.297)">
                  <path id="path154" d="M-18.787,189.942c-.44,0-.733-.5-.733-1.053V179.01c0-.552.342-1.053.733-1.053l14.758.05c4.154,0,7.575,2.708,7.575,6.068s-3.323,6.068-7.575,6.068Zm12.8-2.608c2.248,0,4.007-1.5,4.007-3.46a3.743,3.743,0,0,0-4.007-3.46H-13.9c-.2,0-.44.3-.44.652v5.767c0,.351.147.652.44.652Z" transform="translate(19.52 -177.957)" fill="#474747"/>
                </g>
                <g id="g156" transform="translate(48.278 0.194)">
                  <path id="path158" d="M-18.646,189.8c-.44,0-.733-.5-.733-1.053v-9.879c0-.552.342-1.053.733-1.053l14.661.1c4.154,0,7.477,2.708,7.477,5.917s-3.323,5.917-7.477,5.917H-18.646ZM-5.94,187.29a3.769,3.769,0,0,0,4.056-3.56,3.869,3.869,0,0,0-4.056-3.56h-8.014c-.2,0-.44.3-.44.652v5.867c0,.351.2.652.44.652C-13.857,187.29-5.94,187.29-5.94,187.29Z" transform="translate(19.379 -177.812)" fill="#515151"/>
                </g>
                <g id="g160" transform="translate(48.317 0.19)">
                  <path id="path162" d="M-18.646,189.842c-.44,0-.733-.5-.733-1.053V179.01c0-.552.342-1.053.733-1.053l14.612.1c4.154,0,7.477,2.708,7.477,5.917,0,3.26-3.323,5.917-7.477,5.917Zm12.657-2.407a3.869,3.869,0,0,0,4.056-3.561,3.879,3.879,0,0,0-4.056-3.661h-8.063c-.2,0-.44.3-.44.652v5.917c0,.351.2.652.44.652Z" transform="translate(19.379 -177.957)" fill="#5c5c5c"/>
                </g>
                <g id="g164" transform="translate(48.307 0.236)">
                  <path id="path166" d="M-18.787,190.082c-.44,0-.733-.5-.733-1.053V179.3c0-.552.342-1.053.733-1.053l14.514.1c4.056,0,7.428,2.558,7.428,5.867,0,3.26-3.323,5.867-7.428,5.867Zm12.706-2.307a3.971,3.971,0,0,0,4.154-3.661,3.909,3.909,0,0,0-4.154-3.661h-8.112c-.2,0-.44.3-.44.652v6.068c0,.351.2.652.44.652Z" transform="translate(19.52 -178.247)" fill="#676767"/>
                </g>
                <g id="g168" transform="translate(48.347 0.283)">
                  <path id="path170" d="M-18.787,190.222c-.44,0-.733-.5-.733-1.053v-9.578c0-.552.342-1.053.733-1.053l14.465.1c4.056,0,7.428,2.558,7.428,5.867,0,3.26-3.323,5.867-7.428,5.867Zm12.657-2.206A3.915,3.915,0,0,0-1.976,184.3a4.011,4.011,0,0,0-4.154-3.711l-8.161-.1c-.2,0-.44.3-.44.652v6.118c0,.351.2.652.44.652Z" transform="translate(19.52 -178.538)" fill="#727272"/>
                </g>
                <g id="g172" transform="translate(48.435 0.38)">
                  <path id="path174" d="M-18.646,190.557c-.44,0-.733-.5-.733-1.053v-9.478c0-.552.342-1.053.733-1.053H-4.278c4.056,0,7.33,2.558,7.33,5.767,0,3.159-3.274,5.767-7.33,5.767l-14.367.05Zm12.559-2.206a3.96,3.96,0,0,0,4.2-3.711,3.925,3.925,0,0,0-4.2-3.711l-8.21-.1c-.2,0-.44.3-.44.652V187.7c0,.351.2.652.44.652Z" transform="translate(19.379 -178.973)" fill="#7c7c7c"/>
                </g>
                <g id="g176" transform="translate(48.425 0.326)">
                  <path id="path178" d="M-18.787,190.507c-.44,0-.733-.5-.733-1.053v-9.428c0-.552.342-1.053.733-1.053l14.319.1c4.056,0,7.33,2.558,7.33,5.767,0,3.159-3.274,5.767-7.33,5.767ZM-6.228,188.5a4.012,4.012,0,0,0,4.2-3.861,4.043,4.043,0,0,0-4.2-3.861l-8.308-.1c-.2,0-.44.3-.44.652V187.7c0,.351.2.652.44.652C-14.487,188.5-6.228,188.5-6.228,188.5Z" transform="translate(19.52 -178.973)" fill="#878787"/>
                </g>
                <g id="g180" transform="translate(48.465 0.323)">
                  <path id="path182" d="M-18.787,190.5c-.44,0-.733-.5-.733-1.053v-9.277c0-.552.342-1.053.733-1.053l14.27.05c4.007,0,7.281,2.507,7.281,5.667S-.51,190.5-4.518,190.5Zm12.559-1.855a4.071,4.071,0,0,0,4.3-3.861,4.071,4.071,0,0,0-4.3-3.861l-8.357-.1c-.2,0-.44.3-.44.652v6.369c0,.351.2.652.44.652Z" transform="translate(19.52 -179.118)" fill="#929292"/>
                </g>
                <g id="g184" transform="translate(48.553 0.319)">
                  <path id="path186" d="M-18.646,190.647c-.44,0-.733-.5-.733-1.053v-9.277c0-.552.293-1.053.733-1.053l14.172.1c4.007,0,7.281,2.507,7.281,5.667S-.467,190.7-4.474,190.7Zm12.462-1.855a4.078,4.078,0,0,0,4.3-3.912,4.078,4.078,0,0,0-4.3-3.912l-8.454-.15c-.2,0-.44.3-.44.652v6.419c0,.351.2.652.44.652Z" transform="translate(19.379 -179.263)" fill="#9d9d9d"/>
                </g>
                <g id="g188" transform="translate(48.592 0.316)">
                  <path id="path190" d="M-18.646,190.742c-.44,0-.733-.5-.733-1.053v-9.227c0-.552.293-1.053.733-1.053l14.123.1c4.007,0,7.184,2.507,7.184,5.566s-3.176,5.566-7.184,5.566Zm12.413-1.705a4.122,4.122,0,0,0,4.349-3.912,4.27,4.27,0,0,0-4.349-4.012l-8.5-.1c-.2,0-.44.251-.44.752v6.519c0,.351.2.8.44.8h8.5Z" transform="translate(19.379 -179.408)" fill="#a8a8a8"/>
                </g>
                <g id="g192" transform="translate(48.583 0.312)">
                  <path id="path194" d="M-18.787,190.787c-.342,0-.733-.5-.733-1.053v-9.127c0-.552.293-1.053.733-1.053l14.025.1c3.91,0,7.184,2.507,7.184,5.566s-3.176,5.566-7.184,5.566Zm12.413-1.655a4.235,4.235,0,0,0,4.349-4.012,4.235,4.235,0,0,0-4.349-4.012l-8.6-.1c-.2,0-.44.3-.44.8v6.619c0,.351.2.8.44.8h8.6Z" transform="translate(19.52 -179.554)" fill="#b3b3b3"/>
                </g>
              </g>
            </g>
          </g>
        </g>
      </g>
      <g id="g196" transform="translate(53.223 11.277)">
        <g id="g198">
          <g id="g204">
            <g id="g206">
              <path id="path218" d="M342.176-373.163c-.049,1.2-.147,2.507-.147,3.661h0c0,1.2.2,1.5.782,1.5h10.947c2.883,0,5.376.1,7.281-1.053h0a6.514,6.514,0,0,0,2.981-3.911h0c.049-.552.049-1.655-.147-1.655h0c-.2,0-3.47.8-3.763.853h0c-.147,0-.2.552-.2.552h0a4.469,4.469,0,0,1-3.274,4.012h-9.09a1.109,1.109,0,0,1-1.222-1.153h0c0-.853-.049-2.307-.049-3.009h0c0-.3-.049-.853-.049-1.7h0c-.049.8-.342,1.2-.635,1.2H343.1c-.635,0-.635-.3-.733-1.354h0a7.7,7.7,0,0,0-.2,2.056" transform="translate(-342.029 375.219)" fill="url(#linear-gradient-3)"/>
            </g>
          </g>
        </g>
      </g>
      <g id="g220" transform="translate(57.383 14.855)">
        <g id="Group_2950" data-name="Group 2950" transform="translate(0)">
          <g id="Group_2949" data-name="Group 2949">
            <g id="Group_2948" data-name="Group 2948">
              <g id="g222">
                <g id="g228">
                  <path id="path230" d="M-18.672,207.356c0,.351.049.652.489.652h8.161a4.474,4.474,0,0,0,4.447-2.156c.586-.8.147-.852-.342-.351-.44.5-1.222,1.655-4.056,1.655H-17.6c-.293,0-.44-.3-.489-.351-.1-.1-.586-.3-.586.552" transform="translate(18.672 -205.176)" fill="#fff"/>
                </g>
              </g>
            </g>
          </g>
        </g>
      </g>
      <g id="g232" transform="translate(53.175 7.312)">
        <g id="g234">
          <g id="g240">
            <g id="g242">
              <path id="path250" d="M342.67-386.693c-.342,0-.782-.1-.782.8h0c0,.8.147,3.911.2,4.714h3.763c.049-.351.147-2.558.147-2.858h0c0-.3-.049-1.454.928-1.454h7.428c1.222,0,5.376.5,5.376,4.363h4.154a3.984,3.984,0,0,0-.342-2.006h0c-.44-.8-1.759-2.808-5.815-3.36h0c-.88-.1-8.21-.2-12.413-.2H342.67" transform="translate(-341.888 386.696)" fill="url(#linear-gradient-4)"/>
            </g>
          </g>
        </g>
      </g>
      <g id="g252" transform="translate(25.477 6.423)">
        <g id="Group_2953" data-name="Group 2953" transform="translate(0)">
          <g id="Group_2952" data-name="Group 2952">
            <g id="Group_2951" data-name="Group 2951">
              <g id="g254">
                <g id="g260" transform="translate(0 0.104)">
                  <path id="path262" d="M-28.614,188.282c-5.327-.3-9.578-2.858-9.578-6.419s4.3-6.218,9.578-6.419c.929,0,2.052-.1,2.981-.1a28.657,28.657,0,0,1,2.981.1c5.327.2,9.578,2.858,9.578,6.419s-4.3,6.218-9.578,6.419c-.88,0-1.759.1-2.981.1-1.173,0-2.052-.1-2.981-.1m3.079-2.758h1.662c2.883-.1,5.229-1.655,5.229-3.661s-2.346-3.46-5.229-3.661H-27.2c-2.883.1-5.229,1.655-5.229,3.661s2.346,3.46,5.229,3.661h1.662" transform="translate(38.192 -175.344)" fill="#262626"/>
                </g>
                <g id="g264" transform="translate(0.088 0.052)">
                  <path id="path266" d="M-28.38,188.282c-5.229-.3-9.529-2.858-9.529-6.419s4.3-6.118,9.529-6.419c.929,0,2.052-.1,2.981-.1a28.657,28.657,0,0,1,2.981.1c5.229.2,9.529,2.858,9.529,6.419s-4.3,6.118-9.529,6.419c-.88,0-1.759.1-2.981.1-1.222-.05-2.1-.05-2.981-.1m2.981-2.708h1.662c2.883-.1,5.229-1.655,5.229-3.661s-2.346-3.561-5.229-3.661H-27.06c-2.883.1-5.229,1.655-5.229,3.661s2.346,3.56,5.229,3.661H-25.4" transform="translate(37.909 -175.344)" fill="#313131"/>
                </g>
                <g id="g268" transform="translate(0.078 0.152)">
                  <path id="path270" d="M-28.38,188.617c-5.229-.3-9.529-2.858-9.529-6.369,0-3.56,4.3-6.118,9.529-6.369.929,0,2.052-.1,2.981-.1a29.607,29.607,0,0,1,2.981.1c5.229.2,9.529,2.858,9.529,6.369,0,3.56-4.3,6.118-9.529,6.369-.88,0-1.759.1-2.981.1-1.222-.05-2.1-.1-2.981-.1m2.981-2.658a8.463,8.463,0,0,0,1.662-.1c2.883-.1,5.327-1.655,5.327-3.711,0-2.156-2.395-3.661-5.327-3.711-.489,0-1.075-.1-1.662-.1a8.717,8.717,0,0,0-1.662.1c-2.883.1-5.327,1.655-5.327,3.711,0,2.156,2.395,3.661,5.327,3.711a8.215,8.215,0,0,0,1.662.1" transform="translate(37.909 -175.78)" fill="#3c3c3c"/>
                </g>
                <g id="g272" transform="translate(0.166)">
                  <path id="path274" d="M-28.194,188.327c-5.229-.3-9.432-2.808-9.432-6.369,0-3.46,4.2-6.068,9.432-6.369.929,0,1.955-.1,2.981-.1a28.648,28.648,0,0,1,2.981.1c5.229.2,9.432,2.808,9.432,6.369,0,3.46-4.2,6.068-9.432,6.369-.88,0-1.759.1-2.981.1s-2.1-.1-2.981-.1m2.981-2.507a7.974,7.974,0,0,0,1.662-.1c2.981-.1,5.376-1.705,5.376-3.861S-20.571,178.2-23.552,178c-.489,0-1.173-.1-1.662-.1a8.717,8.717,0,0,0-1.662.1c-2.981.1-5.376,1.705-5.376,3.861s2.395,3.661,5.376,3.861a7.974,7.974,0,0,0,1.662.1" transform="translate(37.626 -175.489)" fill="#474747"/>
                </g>
                <g id="g276" transform="translate(0.205 0.199)">
                  <path id="path278" d="M-28.1,188.752c-5.18-.2-9.383-2.808-9.383-6.218s4.2-6.068,9.383-6.218c.929,0,1.955-.1,2.981-.1.929,0,1.955,0,2.981.1,5.18.2,9.383,2.808,9.383,6.218s-4.2,6.068-9.383,6.218c-.88,0-1.759.1-2.981.1a26.368,26.368,0,0,1-2.981-.1m2.981-2.257a7.972,7.972,0,0,0,1.662-.1c2.981-.2,5.376-1.705,5.376-3.861s-2.395-3.711-5.376-3.861c-.586,0-1.173-.1-1.662-.1a8.718,8.718,0,0,0-1.662.1c-2.981.1-5.376,1.705-5.376,3.861s2.395,3.711,5.376,3.861c.489-.05.929.1,1.662.1" transform="translate(37.485 -176.215)" fill="#515151"/>
                </g>
                <g id="g280" transform="translate(0.196 0.199)">
                  <path id="path282" d="M-28.1,188.9c-5.18-.2-9.383-2.808-9.383-6.218s4.2-5.917,9.383-6.218c.929,0,1.955-.1,2.883-.1a27.7,27.7,0,0,1,2.883.1c5.18.2,9.383,2.808,9.383,6.218s-4.2,5.917-9.383,6.218c-.88,0-1.759.1-2.883.1s-2-.1-2.883-.1m2.981-2.257a9.265,9.265,0,0,0,1.759-.1c2.981-.2,5.473-1.705,5.473-3.912,0-2.156-2.492-3.711-5.473-3.911-.586,0-1.173-.1-1.759-.1a10.355,10.355,0,0,0-1.759.1c-2.981.1-5.473,1.705-5.473,3.911,0,2.156,2.492,3.711,5.473,3.912a9.529,9.529,0,0,0,1.759.1" transform="translate(37.485 -176.36)" fill="#5c5c5c"/>
                </g>
                <g id="g284" transform="translate(0.284 0.348)">
                  <path id="path286" d="M-27.917,189.277c-5.18-.2-9.285-2.808-9.285-6.118,0-3.36,4.154-5.917,9.285-6.118.929,0,1.955-.1,2.883-.1a27.694,27.694,0,0,1,2.883.1c5.18.2,9.285,2.808,9.285,6.118,0,3.36-4.154,5.917-9.285,6.118-.88,0-1.759.1-2.883.1s-2-.05-2.883-.1m2.981-2.206a9.262,9.262,0,0,0,1.759-.1c3.03-.2,5.522-1.705,5.522-3.911s-2.492-3.861-5.522-3.912c-.586,0-1.173-.1-1.759-.1a10.355,10.355,0,0,0-1.759.1c-3.03.05-5.522,1.705-5.522,3.912s2.492,3.861,5.522,3.911a9.262,9.262,0,0,0,1.759.1" transform="translate(37.202 -176.941)" fill="#676767"/>
                </g>
                <g id="g288" transform="translate(0.323 0.196)">
                  <path id="path290" d="M-27.824,188.987c-5.082-.2-9.236-2.708-9.236-6.118,0-3.36,4.154-5.867,9.236-6.118.929,0,1.955-.1,2.883-.1a27.7,27.7,0,0,1,2.883.1c5.082.2,9.236,2.708,9.236,6.118,0,3.36-4.154,5.867-9.236,6.118-.88,0-1.662.1-2.883.1a17,17,0,0,1-2.883-.1m2.981-2.006a9.265,9.265,0,0,0,1.759-.1c3.03-.2,5.522-1.855,5.522-4.012,0-2.206-2.492-3.861-5.522-4.012-.586,0-1.173-.1-1.759-.1a10.355,10.355,0,0,0-1.759.1c-3.03.1-5.522,1.855-5.522,4.012,0,2.206,2.492,3.861,5.522,4.012a16.82,16.82,0,0,0,1.759.1" transform="translate(37.06 -176.651)" fill="#727272"/>
                </g>
                <g id="g292" transform="translate(0.362 0.295)">
                  <path id="path294" d="M-27.731,189.322c-5.082-.2-9.187-2.708-9.187-6.068s4.154-5.867,9.138-6.068c.929,0,1.955-.1,2.883-.1a27.7,27.7,0,0,1,2.883.1c5.082.2,9.138,2.708,9.138,6.068s-4.154,5.867-9.138,6.068c-.88,0-1.662.1-2.883.1-1.173.05-1.955-.1-2.834-.1m2.981-2.006a9.262,9.262,0,0,0,1.759-.1c3.03-.2,5.62-1.855,5.62-4.012,0-2.206-2.492-3.911-5.62-4.012-.586,0-1.173-.1-1.759-.1a10.357,10.357,0,0,0-1.759.1c-3.03.1-5.62,1.855-5.62,4.012,0,2.207,2.492,3.912,5.62,4.012a9.262,9.262,0,0,0,1.759.1" transform="translate(36.919 -177.086)" fill="#7c7c7c"/>
                </g>
                <g id="g296" transform="translate(0.352 0.244)">
                  <path id="path298" d="M-27.731,189.322c-5.033-.2-9.187-2.708-9.187-6.068s4.056-5.767,9.138-6.068c.929,0,1.906-.1,2.834-.1a26.316,26.316,0,0,1,2.834.1c5.033.2,9.138,2.708,9.138,6.068s-4.056,5.767-9.138,6.068c-.88,0-1.662.1-2.834.1-1.124-.05-1.906-.05-2.786-.1m2.981-1.956a9.265,9.265,0,0,0,1.759-.1c3.128-.2,5.669-1.855,5.669-4.112-.049-2.257-2.59-4.012-5.718-4.112-.586,0-1.173-.1-1.759-.1a10.354,10.354,0,0,0-1.759.1c-3.128.1-5.669,1.855-5.669,4.112,0,2.307,2.541,3.911,5.669,4.112a9.813,9.813,0,0,0,1.808.1" transform="translate(36.919 -177.086)" fill="#878787"/>
                </g>
                <g id="g300" transform="translate(0.44 0.544)">
                  <path id="path302" d="M-27.546,190.037c-5.033-.2-9.09-2.708-9.09-5.917s4.056-5.767,9.09-5.917c.929,0,1.906-.1,2.834-.1a26.308,26.308,0,0,1,2.834.1c4.985.1,9.09,2.608,9.09,5.867s-4.056,5.767-9.09,5.917c-.88,0-1.662.1-2.834.1-1.173-.05-2-.05-2.834-.05m2.981-1.855a10.082,10.082,0,0,0,1.808-.1c3.128-.2,5.669-1.906,5.669-4.212s-2.541-4.012-5.669-4.212c-.586,0-1.173-.1-1.808-.1a10.933,10.933,0,0,0-1.808.1c-3.128.2-5.669,1.906-5.669,4.212s2.541,4.012,5.669,4.212c.538,0,1.075.1,1.808.1" transform="translate(36.636 -178.102)" fill="#929292"/>
                </g>
                <g id="g304" transform="translate(0.528 0.392)">
                  <path id="path306" d="M-27.361,189.747c-5.033-.2-8.992-2.708-8.992-5.917,0-3.26,4.056-5.667,8.992-5.917.929,0,1.906-.1,2.834-.1a26.769,26.769,0,0,1,2.834.1c5.033.2,8.992,2.708,8.992,5.917,0,3.26-4.007,5.767-8.992,5.917-.88,0-1.662.1-2.834.1s-2-.1-2.834-.1m2.981-1.705a10.083,10.083,0,0,0,1.808-.1c3.176-.2,5.767-1.906,5.767-4.212s-2.541-4.112-5.767-4.212c-.586,0-1.222-.1-1.808-.1a10.933,10.933,0,0,0-1.808.1c-3.176.2-5.767,1.906-5.767,4.212s2.541,4.112,5.767,4.212a9.811,9.811,0,0,0,1.808.1" transform="translate(36.353 -177.812)" fill="#9d9d9d"/>
                </g>
                <g id="g308" transform="translate(0.47 0.391)">
                  <path id="path310" d="M-27.5,189.792c-4.936-.2-8.992-2.558-8.992-5.867s4.007-5.667,8.992-5.867c.929,0,1.906-.1,2.834-.1a26.773,26.773,0,0,1,2.834.1c4.936.2,8.992,2.558,8.992,5.867s-4.007,5.667-8.992,5.867c-.782,0-1.662.1-2.834.1a24.548,24.548,0,0,1-2.834-.1m2.981-1.5a9.543,9.543,0,0,0,1.808-.1c3.176-.2,5.767-1.906,5.767-4.363,0-2.407-2.639-4.112-5.767-4.363-.586,0-1.222-.1-1.808-.1a10.936,10.936,0,0,0-1.808.1c-3.176.2-5.767,1.906-5.767,4.363,0,2.407,2.639,4.112,5.767,4.363.586,0,1.124.1,1.808.1" transform="translate(36.494 -177.957)" fill="#a8a8a8"/>
                </g>
                <g id="g312" transform="translate(0.607 0.39)">
                  <path id="path314" d="M-27.127,189.937c-4.936-.3-8.943-2.558-8.943-5.867,0-3.159,4.007-5.566,8.943-5.867.929,0,1.906-.1,2.834-.1a26.769,26.769,0,0,1,2.834.1c4.936.2,8.943,2.558,8.943,5.867,0,3.159-4.007,5.566-8.943,5.867-.782,0-1.662.1-2.834.1-1.222-.1-2.052-.1-2.834-.1m2.883-1.5a9.544,9.544,0,0,0,1.808-.1c3.176-.2,5.815-1.906,5.815-4.363s-2.639-4.212-5.815-4.363c-.586,0-1.222-.1-1.808-.1a10.936,10.936,0,0,0-1.808.1c-3.176.2-5.815,1.906-5.815,4.363s2.639,4.212,5.815,4.363a10.083,10.083,0,0,0,1.808.1" transform="translate(36.07 -178.102)" fill="#b3b3b3"/>
                </g>
              </g>
            </g>
          </g>
        </g>
      </g>
      <g id="g316" transform="translate(26.047 7.065)">
        <g id="g318">
          <g id="g324">
            <g id="g326">
              <path id="path334" d="M268.5-386.66a8.455,8.455,0,0,0-4.594,3.009h0a2.99,2.99,0,0,0-.489,2.156h3.91a4.49,4.49,0,0,1,2.1-3.56h0c1.466-1.053,3.763-1.153,5.522-1.153h0a12.561,12.561,0,0,1,5.229.8h0a4.24,4.24,0,0,1,2.834,3.861h3.763a8.271,8.271,0,0,0-.049-1.454h0c-.293-.853-.782-2.156-3.421-3.26h0c-2.639-1.153-5.327-1.153-8.308-1.153h-1.075a20.824,20.824,0,0,0-5.424.752" transform="translate(-263.367 387.412)" fill="url(#linear-gradient-5)"/>
            </g>
          </g>
        </g>
      </g>
      <g id="g336" transform="translate(26.101 12.832)">
        <g id="g338">
          <g id="g344">
            <g id="g346">
              <path id="path358" d="M263.524-370.719c0,5.215,8.161,6.068,10.751,6.068h0a31.141,31.141,0,0,0,7.184-.552h0c4.349-1.053,5.327-3.911,5.473-5.366h-3.763a4.668,4.668,0,0,1-3.274,4.413h0c-2.395.853-9.236.3-10.556-.652h0a6.238,6.238,0,0,1-1.906-3.861h0l-3.909-.05Z" transform="translate(-263.524 370.719)" fill="url(#linear-gradient-6)"/>
            </g>
          </g>
        </g>
      </g>
      <g id="g360" transform="translate(30.475 6.715)">
        <g id="Group_2956" data-name="Group 2956" transform="translate(0)">
          <g id="Group_2955" data-name="Group 2955">
            <g id="Group_2954" data-name="Group 2954">
              <g id="g362">
                <g id="g368" transform="translate(0 7.132)">
                  <path id="path370" d="M-25.715,203.847c5.62,0,7.184-2.206,7.575-3.912,0-.2-.049-.351-.2-.351s-.2.2-.2.351c-.147.3-.782,3.159-7.184,3.159s-6.988-2.808-7.135-3.159c-.049-.2-.049-.351-.2-.351s-.2.2-.2.351c.391,1.855,1.906,3.912,7.526,3.912" transform="translate(33.241 -199.585)" fill="#fff"/>
                </g>
                <g id="g372" transform="translate(48.183 0.096)">
                  <path id="path374" d="M-81.659,204.881c0-.351-.2-.652-.44-.652H-97.151c-4.887.2-8.8,2.808-8.8,6.218s2.248,6.118,8.8,6.218h14.71c.44,0,.782-.5.782-1.153v-5.065c0-.552-.342-1.153-.782-1.153H-94.365c-.2,0-.44.3-.44.652V211.4c0,.351.2.652.44.652h6.7c.2,0,.44.3.44.652v.8c0,.351-.2.652-.44.652h-6.548a6.529,6.529,0,0,1-1.466-.1c-2.492-.1-4.5-1.5-4.5-3.661s2.052-3.159,4.5-3.26H-82c.2,0,.44-.5.44-.8v-1.5l-.1.05Z" transform="translate(105.947 -204.23)" fill="#262626"/>
                </g>
                <g id="g376" transform="translate(48.277 0.014)">
                  <path id="path378" d="M-26.593,197.189c0,3.36,2.2,6.068,8.7,6.118H-3.282c.44,0,.782-.5.782-1.153v-5.015c0-.552-.342-1.153-.782-1.153H-15.011c-.2,0-.44.3-.44.652v1.454c0,.351.2.652.44.652h6.7c.2,0,.44.3.44.652v.853c0,.351-.2.652-.44.652H-16.33c-2.541-.1-4.594-1.655-4.594-3.711,0-2.156,2.052-3.159,4.594-3.26H-2.843c.2,0,.44-.351.44-.8v-1.454c0-.351-.2-.652-.44-.652H-17.8c-4.887.251-8.8,2.909-8.8,6.168" transform="translate(26.593 -191.021)" fill="#313131"/>
                </g>
                <g id="g380" transform="translate(48.368 0.057)">
                  <path id="path382" d="M-26.451,197.284c0,3.36,2.2,5.917,8.65,6.068H-3.336c.44,0,.782-.5.782-1.053v-4.914c0-.552-.342-1.053-.782-1.053H-15.065c-.2,0-.44.3-.44.652v1.2c0,.351.2.652.44.652h6.7c.2,0,.44.3.44.652v1c0,.351-.2.652-.44.652h-6.7a6.073,6.073,0,0,1-1.368-.1c-2.639-.1-4.643-1.705-4.643-3.711,0-2.156,2.1-3.26,4.594-3.36H-3.043c.2,0,.44-.351.44-.8v-1.354c0-.351-.2-.652-.44-.652H-17.948c-4.691.351-8.5,2.909-8.5,6.118" transform="translate(26.451 -191.166)" fill="#3c3c3c"/>
                </g>
                <g id="g384" transform="translate(48.313)">
                  <path id="path386" d="M-26.734,197.189c0,3.36,2.2,5.867,8.65,5.917H-3.717c.44,0,.782-.5.782-1.053v-4.764c0-.552-.342-1.053-.782-1.053H-15.25c-.2,0-.44.3-.44.552v1.2c0,.351.147.552.44.552h6.7c.2,0,.44.3.44.652v1.053c0,.351-.147.652-.44.652H-16.57c-2.688-.1-4.643-1.855-4.643-3.861,0-2.156,2.1-3.26,4.594-3.36H-3.277c.2,0,.44-.351.44-.8v-1.2c0-.351-.147-.652-.44-.652H-18.084c-4.789.451-8.65,3.059-8.65,6.168" transform="translate(26.734 -191.021)" fill="#474747"/>
                </g>
                <g id="g388" transform="translate(48.405 0.194)">
                  <path id="path390" d="M-26.593,197.719c0,3.26,2.2,5.867,8.6,5.867H-3.673c.44,0,.733-.5.733-1.053V197.82c0-.552-.342-1.053-.733-1.053H-15.206c-.2,0-.44.3-.44.552v1.153c0,.351.147.552.44.552h6.7c.2,0,.44.3.44.552v1.153c0,.351-.147.552-.44.552h-8.063c-2.786-.1-4.74-1.906-4.74-3.861,0-2.156,2.2-3.36,4.643-3.46h13.39c.2,0,.44-.351.44-.652v-1.153c0-.351-.147-.552-.44-.552H-18.041c-4.789.251-8.552,2.909-8.552,6.118" transform="translate(26.593 -191.601)" fill="#515151"/>
                </g>
                <g id="g392" transform="translate(48.448 0.237)">
                  <path id="path394" d="M-26.593,197.814c0,3.26,2.2,5.767,8.5,5.767H-3.869c.44,0,.733-.5.733-1.053v-4.563c0-.552-.342-1.053-.733-1.053H-15.158c-.2,0-.44.3-.44.552v1.053c0,.3.147.552.44.552h6.7c.2,0,.44.3.44.552v1.2c0,.351-.147.552-.44.552h-8.063c-2.786-.1-4.789-1.906-4.789-3.912,0-2.156,2.2-3.36,4.643-3.46H-3.38c.2,0,.44-.351.44-.652V192.3c0-.351-.147-.552-.44-.552H-18.09c-4.789.3-8.5,3.009-8.5,6.068" transform="translate(26.593 -191.746)" fill="#5c5c5c"/>
                </g>
                <g id="g396" transform="translate(48.442 0.331)">
                  <path id="path398" d="M-26.734,198c0,3.159,2.2,5.667,8.5,5.767H-4.059c.44,0,.733-.5.733-1.053V198.2c0-.552-.342-1.053-.733-1.053H-15.25c-.2,0-.342.3-.342.552v1c0,.3.147.552.342.552h6.7c.2,0,.342.3.342.552v1.354c0,.3-.147.552-.342.552h-8.112c-2.834-.1-4.887-2.006-4.887-3.912,0-2.156,2.248-3.46,4.643-3.56H-3.717c.2,0,.342-.351.342-.652v-1c0-.3-.147-.552-.342-.552H-18.28c-4.74.251-8.454,2.959-8.454,5.968" transform="translate(26.734 -192.037)" fill="#676767"/>
                </g>
                <g id="g400" transform="translate(48.533 0.524)">
                  <path id="path402" d="M-26.593,198.384c0,3.159,2.1,5.566,8.454,5.667H-4.064c.44,0,.733-.5.733-1.053v-4.413c0-.552-.342-1.053-.733-1.053H-15.255c-.2,0-.342.3-.342.552v.853c0,.3.147.552.342.552h6.7c.2,0,.342.3.342.552v1.655c0,.3-.147.552-.342.552h-8.112c-2.883-.1-4.887-2.156-4.887-4.012,0-2.156,2.248-3.46,4.643-3.561H-3.771c.2,0,.342-.3.342-.652v-.853c0-.3-.147-.552-.342-.552H-18.187c-4.691.05-8.405,2.858-8.405,5.767" transform="translate(26.593 -192.617)" fill="#727272"/>
                </g>
                <g id="g404" transform="translate(48.527 0.417)">
                  <path id="path406" d="M-26.734,198.194c0,3.059,2.1,5.416,8.357,5.566H-4.4c.44,0,.733-.5.733-1.053v-4.363c0-.552-.342-1.053-.733-1.053h-11c-.2,0-.342.3-.342.552v.8c0,.3.147.552.342.552h6.646c.2,0,.342.3.342.552v1.705c0,.3-.147.552-.342.552h-8.112c-2.981-.1-4.936-2.206-4.936-4.012,0-2.206,2.346-3.56,4.74-3.661H-4.01c.2,0,.342-.3.342-.652v-.8c0-.3-.147-.552-.342-.552H-18.427c-4.643.251-8.308,3.059-8.308,5.867" transform="translate(26.734 -192.327)" fill="#7c7c7c"/>
                </g>
                <g id="g408" transform="translate(48.57 0.511)">
                  <path id="path410" d="M-26.734,198.284c0,3.059,2.1,5.366,8.357,5.416H-4.45c.44,0,.733-.5.733-1v-4.112c0-.552-.342-1-.733-1H-15.4c-.2,0-.342.3-.342.552v.652c0,.3.147.552.342.552h6.7c.2,0,.342.3.342.552v1.705c0,.3-.147.552-.342.552h-8.112c-2.981-.1-5.033-2.307-5.033-4.112,0-2.207,2.346-3.56,4.74-3.661H-4.059c.2,0,.342-.3.342-.552v-.652c0-.3-.147-.552-.342-.552h-11.68a23.21,23.21,0,0,0-2.639.1c-4.74.15-8.357,2.909-8.357,5.566" transform="translate(26.734 -192.617)" fill="#878787"/>
                </g>
                <g id="g412" transform="translate(48.613 0.554)">
                  <path id="path414" d="M-26.734,198.379c0,3.059,2.1,5.265,8.308,5.366.635,0,1.906.1,2.639.1H-4.5c.44,0,.733-.5.733-1V198.83c0-.552-.342-1-.733-1H-15.25c-.2,0-.342.3-.342.552v.351c0,.3.147.552.342.552h6.7c.2,0,.342.3.342.552v1.855c0,.3-.147.552-.342.552h-8.259c-3.03-.1-5.082-2.307-5.082-4.112,0-2.206,2.395-3.661,4.74-3.711h12.95c.2,0,.342-.3.342-.552v-.552c0-.3-.147-.552-.342-.552h-11.68a24.085,24.085,0,0,0-2.639.1c-4.643.1-8.21,2.959-8.21,5.516" transform="translate(26.734 -192.763)" fill="#929292"/>
                </g>
                <g id="g416" transform="translate(48.607 0.497)">
                  <path id="path418" d="M-26.876,198.284c0,3.009,2.1,5.215,8.21,5.265.635,0,1.906.1,2.639.1H-4.836c.44,0,.733-.5.733-1v-3.912c0-.552-.293-1-.733-1h-10.6c-.2,0-.342.3-.342.552v.351c0,.3.147.552.342.552h6.7c.2,0,.342.3.342.552v1.906c0,.3-.147.552-.342.552h-8.161c-3.128-.05-5.082-2.307-5.082-4.112,0-2.206,2.395-3.661,4.789-3.861H-4.347c.2,0,.342-.3.342-.552v-.5c0-.3-.147-.552-.342-.552H-15.88a24.085,24.085,0,0,0-2.639.1c-4.789.2-8.357,3.059-8.357,5.566" transform="translate(26.876 -192.617)" fill="#9d9d9d"/>
                </g>
                <g id="g420" transform="translate(48.699 0.49)">
                  <path id="path422" d="M-26.734,198.284c0,3.009,2.052,5.065,8.161,5.215.733,0,1.808.1,2.541.1H-4.89c.44,0,.733-.351.733-1v-3.861c0-.552-.293-1-.733-1h-10.6c-.2,0-.342.3-.342.552v.351c0,.3.147.552.342.552h6.7c.2,0,.342.3.342.552v2.006c0,.3-.147.552-.342.552h-8.21c-3.176-.1-5.18-2.507-5.18-4.363,0-2.207,2.492-3.711,4.789-3.861H-4.6c.2,0,.342-.3.342-.552v-.351c0-.3-.147-.552-.342-.552H-16.081a21.528,21.528,0,0,0-2.541.1c-4.545.351-8.112,3.209-8.112,5.566" transform="translate(26.734 -192.617)" fill="#a8a8a8"/>
                </g>
                <g id="g424" transform="translate(48.759 0.731)">
                  <path id="path426" d="M-77.668,205.362c0-.3-.147-.552-.342-.552H-89.445a21.537,21.537,0,0,0-2.541.1c-4.643.2-8.161,3.059-8.161,5.366,0,2.858,2.052,5.015,8.161,5.215.733,0,1.808.1,2.541.1H-78.4c.342,0,.733-.351.733-1v-3.711c0-.5-.293-1-.733-1H-88.81c-.2,0-.342.3-.342.552v.3c0,.3.147.552.342.552h6.7c.2,0,.342.3.342.552v2.156c0,.3-.147.552-.342.552h-8.21c-3.274,0-5.229-2.558-5.229-4.363,0-2.206,2.492-3.711,4.789-3.911H-78.01c.2,0,.342-.3.342-.552v-.351Z" transform="translate(100.147 -204.81)" fill="#b3b3b3"/>
                </g>
                <g id="g428" transform="translate(48.759 0.731)">
                  <path id="path430" d="M-77.668,205.362c0-.3-.147-.552-.342-.552H-89.445a21.537,21.537,0,0,0-2.541.1c-4.643.2-8.161,3.059-8.161,5.366,0,2.858,2.052,5.015,8.161,5.215.733,0,1.808.1,2.541.1H-78.4c.342,0,.733-.351.733-1v-3.711c0-.5-.293-1-.733-1H-88.81c-.2,0-.342.3-.342.552v.3c0,.3.147.552.342.552h6.7c.2,0,.342.3.342.552v2.156c0,.3-.147.552-.342.552h-8.21c-3.274,0-5.229-2.558-5.229-4.363,0-2.206,2.492-3.711,4.789-3.911H-78.01c.2,0,.342-.3.342-.552v-.351Z" transform="translate(100.147 -204.81)" fill="#b3b3b3"/>
                </g>
                <g id="g432" transform="translate(48.759 0.731)">
                  <path id="path434" d="M-77.668,205.362c0-.3-.147-.552-.342-.552H-89.445a21.537,21.537,0,0,0-2.541.1c-4.643.2-8.161,3.059-8.161,5.366,0,2.858,2.052,5.015,8.161,5.215.733,0,1.808.1,2.541.1H-78.4c.342,0,.733-.351.733-1v-3.711c0-.5-.293-1-.733-1H-88.81c-.2,0-.342.3-.342.552v.3c0,.3.147.552.342.552h6.7c.2,0,.342.3.342.552v2.156c0,.3-.147.552-.342.552h-8.21c-3.274,0-5.229-2.558-5.229-4.363,0-2.206,2.492-3.711,4.789-3.911H-78.01c.2,0,.342-.3.342-.552v-.351Z" transform="translate(100.147 -204.81)" fill="#b3b3b3"/>
                </g>
                <g id="g436" transform="translate(48.759 0.731)">
                  <path id="path438" d="M-77.668,205.362c0-.3-.147-.552-.342-.552H-89.445a21.537,21.537,0,0,0-2.541.1c-4.643.2-8.161,3.059-8.161,5.366,0,2.858,2.052,5.015,8.161,5.215.733,0,1.808.1,2.541.1H-78.4c.342,0,.733-.351.733-1v-3.711c0-.5-.293-1-.733-1H-88.81c-.2,0-.342.3-.342.552v.3c0,.3.147.552.342.552h6.7c.2,0,.342.3.342.552v2.156c0,.3-.147.552-.342.552h-8.21c-3.274,0-5.229-2.558-5.229-4.363,0-2.206,2.492-3.711,4.789-3.911H-78.01c.2,0,.342-.3.342-.552v-.351Z" transform="translate(100.147 -204.81)" fill="#b3b3b3"/>
                </g>
                <g id="g440" transform="translate(48.759 0.731)">
                  <path id="path442" d="M-77.668,205.362c0-.3-.147-.552-.342-.552H-89.445a21.537,21.537,0,0,0-2.541.1c-4.643.2-8.161,3.059-8.161,5.366,0,2.858,2.052,5.015,8.161,5.215.733,0,1.808.1,2.541.1H-78.4c.342,0,.733-.351.733-1v-3.711c0-.5-.293-1-.733-1H-88.81c-.2,0-.342.3-.342.552v.3c0,.3.147.552.342.552h6.7c.2,0,.342.3.342.552v2.156c0,.3-.147.552-.342.552h-8.21c-3.274,0-5.229-2.558-5.229-4.363,0-2.206,2.492-3.711,4.789-3.911H-78.01c.2,0,.342-.3.342-.552v-.351Z" transform="translate(100.147 -204.81)" fill="#b3b3b3"/>
                </g>
                <g id="g444" transform="translate(48.759 0.731)">
                  <path id="path446" d="M-77.668,205.362c0-.3-.147-.552-.342-.552H-89.445a21.537,21.537,0,0,0-2.541.1c-4.643.2-8.161,3.059-8.161,5.366,0,2.858,2.052,5.015,8.161,5.215.733,0,1.808.1,2.541.1H-78.4c.342,0,.733-.351.733-1v-3.711c0-.5-.293-1-.733-1H-88.81c-.2,0-.342.3-.342.552v.3c0,.3.147.552.342.552h6.7c.2,0,.342.3.342.552v2.156c0,.3-.147.552-.342.552h-8.21c-3.274,0-5.229-2.558-5.229-4.363,0-2.206,2.492-3.711,4.789-3.911H-78.01c.2,0,.342-.3.342-.552v-.351Z" transform="translate(100.147 -204.81)" fill="#b3b3b3"/>
                </g>
                <g id="g448" transform="translate(48.759 0.731)">
                  <path id="path450" d="M-77.668,205.362c0-.3-.147-.552-.342-.552H-89.445a21.537,21.537,0,0,0-2.541.1c-4.643.2-8.161,3.059-8.161,5.366,0,2.858,2.052,5.015,8.161,5.215.733,0,1.808.1,2.541.1H-78.4c.342,0,.733-.351.733-1v-3.711c0-.5-.293-1-.733-1H-88.81c-.2,0-.342.3-.342.552v.3c0,.3.147.552.342.552h6.7c.2,0,.342.3.342.552v2.156c0,.3-.147.552-.342.552h-8.21c-3.274,0-5.229-2.558-5.229-4.363,0-2.206,2.492-3.711,4.789-3.911H-78.01c.2,0,.342-.3.342-.552v-.351Z" transform="translate(100.147 -204.81)" fill="#b3b3b3"/>
                </g>
                <g id="g452" transform="translate(48.759 0.731)">
                  <path id="path454" d="M-77.668,205.362c0-.3-.147-.552-.342-.552H-89.445a21.537,21.537,0,0,0-2.541.1c-4.643.2-8.161,3.059-8.161,5.366,0,2.858,2.052,5.015,8.161,5.215.733,0,1.808.1,2.541.1H-78.4c.342,0,.733-.351.733-1v-3.711c0-.5-.293-1-.733-1H-88.81c-.2,0-.342.3-.342.552v.3c0,.3.147.552.342.552h6.7c.2,0,.342.3.342.552v2.156c0,.3-.147.552-.342.552h-8.21c-3.274,0-5.229-2.558-5.229-4.363,0-2.206,2.492-3.711,4.789-3.911H-78.01c.2,0,.342-.3.342-.552v-.351Z" transform="translate(100.147 -204.81)" fill="#b3b3b3"/>
                </g>
                <g id="g456" transform="translate(48.759 0.731)">
                  <path id="path458" d="M-77.668,205.362c0-.3-.147-.552-.342-.552H-89.445a21.537,21.537,0,0,0-2.541.1c-4.643.2-8.161,3.059-8.161,5.366,0,2.858,2.052,5.015,8.161,5.215.733,0,1.808.1,2.541.1H-78.4c.342,0,.733-.351.733-1v-3.711c0-.5-.293-1-.733-1H-88.81c-.2,0-.342.3-.342.552v.3c0,.3.147.552.342.552h6.7c.2,0,.342.3.342.552v2.156c0,.3-.147.552-.342.552h-8.21c-3.274,0-5.229-2.558-5.229-4.363,0-2.206,2.492-3.711,4.789-3.911H-78.01c.2,0,.342-.3.342-.552v-.351Z" transform="translate(100.147 -204.81)" fill="#b3b3b3"/>
                </g>
                <g id="g460" transform="translate(48.759 0.731)">
                  <path id="path462" d="M-77.668,205.362c0-.3-.147-.552-.342-.552H-89.445a21.537,21.537,0,0,0-2.541.1c-4.643.2-8.161,3.059-8.161,5.366,0,2.858,2.052,5.015,8.161,5.215.733,0,1.808.1,2.541.1H-78.4c.342,0,.733-.351.733-1v-3.711c0-.5-.293-1-.733-1H-88.81c-.2,0-.342.3-.342.552v.3c0,.3.147.552.342.552h6.7c.2,0,.342.3.342.552v2.156c0,.3-.147.552-.342.552h-8.21c-3.274,0-5.229-2.558-5.229-4.363,0-2.206,2.492-3.711,4.789-3.911H-78.01c.2,0,.342-.3.342-.552v-.351Z" transform="translate(100.147 -204.81)" fill="#b3b3b3"/>
                </g>
                <g id="g464" transform="translate(48.759 0.731)">
                  <path id="path466" d="M-77.668,205.362c0-.3-.147-.552-.342-.552H-89.445a21.537,21.537,0,0,0-2.541.1c-4.643.2-8.161,3.059-8.161,5.366,0,2.858,2.052,5.015,8.161,5.215.733,0,1.808.1,2.541.1H-78.4c.342,0,.733-.351.733-1v-3.711c0-.5-.293-1-.733-1H-88.81c-.2,0-.342.3-.342.552v.3c0,.3.147.552.342.552h6.7c.2,0,.342.3.342.552v2.156c0,.3-.147.552-.342.552h-8.21c-3.274,0-5.229-2.558-5.229-4.363,0-2.206,2.492-3.711,4.789-3.911H-78.01c.2,0,.342-.3.342-.552v-.351Z" transform="translate(100.147 -204.81)" fill="#b3b3b3"/>
                </g>
                <g id="g468" transform="translate(48.759 0.731)">
                  <path id="path470" d="M-77.668,205.362c0-.3-.147-.552-.342-.552H-89.445a21.537,21.537,0,0,0-2.541.1c-4.643.2-8.161,3.059-8.161,5.366,0,2.858,2.052,5.015,8.161,5.215.733,0,1.808.1,2.541.1H-78.4c.342,0,.733-.351.733-1v-3.711c0-.5-.293-1-.733-1H-88.81c-.2,0-.342.3-.342.552v.3c0,.3.147.552.342.552h6.7c.2,0,.342.3.342.552v2.156c0,.3-.147.552-.342.552h-8.21c-3.274,0-5.229-2.558-5.229-4.363,0-2.206,2.492-3.711,4.789-3.911H-78.01c.2,0,.342-.3.342-.552v-.351Z" transform="translate(100.147 -204.81)" fill="#b3b3b3"/>
                </g>
                <g id="g472" transform="translate(48.759 0.731)">
                  <path id="path474" d="M-77.668,205.362c0-.3-.147-.552-.342-.552H-89.445a21.537,21.537,0,0,0-2.541.1c-4.643.2-8.161,3.059-8.161,5.366,0,2.858,2.052,5.015,8.161,5.215.733,0,1.808.1,2.541.1H-78.4c.342,0,.733-.351.733-1v-3.711c0-.5-.293-1-.733-1H-88.81c-.2,0-.342.3-.342.552v.3c0,.3.147.552.342.552h6.7c.2,0,.342.3.342.552v2.156c0,.3-.147.552-.342.552h-8.21c-3.274,0-5.229-2.558-5.229-4.363,0-2.206,2.492-3.711,4.789-3.911H-78.01c.2,0,.342-.3.342-.552v-.351Z" transform="translate(100.147 -204.81)" fill="#b3b3b3"/>
                </g>
                <g id="g476" transform="translate(48.759 0.731)">
                  <path id="path478" d="M-77.668,205.362c0-.3-.147-.552-.342-.552H-89.445a21.537,21.537,0,0,0-2.541.1c-4.643.2-8.161,3.059-8.161,5.366,0,2.858,2.052,5.015,8.161,5.215.733,0,1.808.1,2.541.1H-78.4c.342,0,.733-.351.733-1v-3.711c0-.5-.293-1-.733-1H-88.81c-.2,0-.342.3-.342.552v.3c0,.3.147.552.342.552h6.7c.2,0,.342.3.342.552v2.156c0,.3-.147.552-.342.552h-8.21c-3.274,0-5.229-2.558-5.229-4.363,0-2.206,2.492-3.711,4.789-3.911H-78.01c.2,0,.342-.3.342-.552v-.351Z" transform="translate(100.147 -204.81)" fill="#b3b3b3"/>
                </g>
              </g>
            </g>
          </g>
        </g>
      </g>
      <g id="g480" transform="translate(79.222 7.355)">
        <g id="g482">
          <g id="g488">
            <g id="g490">
              <path id="path498" d="M425.442-386.46c-4.643.2-8.161,2.808-8.161,5.767h4.594v-.2h0c0-2.407,2.492-4.012,4.74-4.112h13.146c.2,0,.342-.351.44-1h0l.049-.2c0-.3-.147-.351-.342-.351H427.739c-.831-.05-1.564.1-2.3.1" transform="translate(-417.281 386.571)" fill="url(#linear-gradient-7)"/>
            </g>
          </g>
        </g>
      </g>
      <g id="g500" transform="translate(79.173 12.882)">
        <g id="g502">
          <g id="g508">
            <g id="g510">
              <path id="path522" d="M428.184-370.123v.351h0c0,.2,0,.351.342.351h6.451c.2,0,.586.2.586.5h0v2.307h0c0,.351,0,.652-.635.652h0c-.635,0-10.018,1-11.484-1.153h0c-.635-1-1.662-2.207-1.759-3.36H417.14c0,5.215,6.255,5.266,7.477,5.266h0c1.222,0,13.537.1,14.025.1h0c.489,0,.928-.2.928-1.053h0v-3.911h0c0-.2,0-.2-.147-.5H428.868c-.049,0-.684.351-.684.451" transform="translate(-417.14 370.574)" fill="url(#linear-gradient-8)"/>
            </g>
          </g>
        </g>
      </g>
      <g id="g524" transform="translate(84.527 6.855)">
        <g id="Group_2959" data-name="Group 2959" transform="translate(0 0)">
          <g id="Group_2958" data-name="Group 2958">
            <g id="Group_2957" data-name="Group 2957">
              <g id="g526">
                <g id="g532" transform="translate(0 8.655)">
                  <path id="path534" d="M-59.332,208.149c0,.351-.049.552-.489.552h-8.308c-1.319,0-3.421-.3-4.5-1.906-.44-.552,0-.652.489-.2a5.7,5.7,0,0,0,4.007,1.454h7.77a.576.576,0,0,0,.489-.351c.1-.2.538-.3.538.451" transform="translate(72.805 -206.31)" fill="#fff"/>
                </g>
                <g id="g536" transform="translate(5.591 5.61)">
                  <path id="path538" d="M-56.978,207.645c0-.351-.2-.8-.489-.8h-10.7c-.2,0-.293.351-.293.8Z" transform="translate(68.462 -206.842)" fill="#fff"/>
                </g>
                <g id="g540" transform="translate(21.719)">
                  <path id="path542" d="M-38.59,189.327c-.44,0-.733-.5-.733-1.053v-10.28c0-.552.342-1.053.733-1.053h20.574c.147,0,.293.2.293.5v2.006c0,.3-.147.5-.293.5h-15.1c-.293,0-.586.351-.586.853v.5c0,.5.293.853.586.853H-18.75c.147,0,.293.2.293.5v1.705c0,.2-.147.5-.293.5H-33.117c-.293,0-.586.351-.586.853v.5c0,.5.293.852.586.852h15.394c.147,0,.293.2.293.5v1.855c0,.3-.147.5-.293.5Z" transform="translate(39.323 -176.941)" fill="#262626"/>
                </g>
                <g id="g544" transform="translate(21.826 0.088)">
                  <path id="path546" d="M-38.449,189.562c-.44,0-.733-.5-.733-1.053v-10.08c0-.552.342-1.053.733-1.053h20.427c.147,0,.293.2.293.5v1.855c0,.2-.147.5-.293.5h-15.1c-.293,0-.586.351-.586.853v.552c0,.5.2.853.586.853h14.367c.147,0,.293.2.293.5v1.5c0,.2-.147.5-.293.5H-33.122c-.293,0-.586.351-.586.853v.552c0,.5.293.852.586.852h15.394c.147,0,.293.2.293.5v1.855c0,.2-.147.5-.293.5Z" transform="translate(39.182 -177.376)" fill="#313131"/>
                </g>
                <g id="g548" transform="translate(21.835 0.025)">
                  <path id="path550" d="M-38.59,189.462c-.44,0-.733-.5-.733-1.053v-9.979c0-.552.342-1.053.733-1.053h20.329c.147,0,.293.2.293.351v1.705a.332.332,0,0,1-.293.351h-15.1c-.293,0-.586.351-.586.853v.652c0,.5.2.853.586.853h14.416c.147,0,.293.2.293.351v1.454a.332.332,0,0,1-.293.351H-33.313c-.293,0-.586.351-.586.8v.8c0,.5.293.8.586.8h15.394c.147,0,.293.2.293.351v1.655a.332.332,0,0,1-.293.351Z" transform="translate(39.323 -177.376)" fill="#3c3c3c"/>
                </g>
                <g id="g552" transform="translate(21.942 0.113)">
                  <path id="path554" d="M-38.449,189.8c-.44,0-.733-.5-.733-1.053v-9.879c0-.552.342-1.053.733-1.053h20.183c.147,0,.293.2.293.351v1.655a.332.332,0,0,1-.293.351h-15.1c-.293,0-.586.351-.586.8v.8c0,.5.2.8.586.8H-19c.147,0,.293.2.293.351v1.354a.332.332,0,0,1-.293.351H-33.464c-.293,0-.586.351-.586.8v.8c0,.5.293.8.586.8h15.394c.147,0,.293.2.293.351v1.5a.332.332,0,0,1-.293.351Z" transform="translate(39.182 -177.812)" fill="#474747"/>
                </g>
                <g id="g556" transform="translate(21.951 0.201)">
                  <path id="path558" d="M-38.59,190.082c-.44,0-.733-.5-.733-1.053V179.3c0-.552.342-1.053.733-1.053h20.085c.147,0,.293.2.293.351v1.454a.332.332,0,0,1-.293.351h-15.1c-.293,0-.586.351-.586.8v1c0,.5.2.8.586.8h14.367c.147,0,.293.2.293.351v1.2a.332.332,0,0,1-.293.351H-33.7c-.293,0-.586.351-.586.8v1c0,.5.293.8.586.8H-18.31c.147,0,.293.2.293.351v1.454a.332.332,0,0,1-.293.351Z" transform="translate(39.323 -178.247)" fill="#515151"/>
                </g>
                <g id="g560" transform="translate(22.009 0.288)">
                  <path id="path562" d="M-38.59,190.367c-.44,0-.733-.5-.733-1.053v-9.578c0-.552.342-1.053.733-1.053h19.938c.147,0,.293.2.293.351v1.354a.332.332,0,0,1-.293.351h-15.2c-.293,0-.586.351-.586.8v1.053c0,.5.2.8.586.8h14.465c.147,0,.293.2.293.351V184.9a.332.332,0,0,1-.293.351H-33.85c-.293,0-.586.351-.586.8v1.153c0,.5.293.8.586.8h15.491c.147,0,.293.2.293.351v1.354a.332.332,0,0,1-.293.351Z" transform="translate(39.323 -178.683)" fill="#5c5c5c"/>
                </g>
                <g id="g564" transform="translate(22.019 0.276)">
                  <path id="path566" d="M-38.732,190.412c-.44,0-.733-.5-.733-1.053v-9.478c0-.552.342-1.053.733-1.053h19.841c.147,0,.293.2.293.351v1.2a.332.332,0,0,1-.293.351h-15.2c-.293,0-.586.351-.586.8v1.153c0,.5.2.8.586.8h14.465c.147,0,.293.2.293.351V184.9a.332.332,0,0,1-.293.351H-34.089c-.293,0-.586.351-.586.8v1.2c0,.5.293.8.586.8H-18.6c.147,0,.293.2.293.351v1.153a.332.332,0,0,1-.293.351Z" transform="translate(39.465 -178.828)" fill="#676767"/>
                </g>
                <g id="g568" transform="translate(22.125 0.464)">
                  <path id="path570" d="M-38.59,190.937c-.44,0-.733-.5-.733-1.053v-9.277c0-.552.293-1.053.733-1.053H-18.9c.147,0,.293.2.293.351v1.053a.332.332,0,0,1-.293.351h-15.2c-.293,0-.586.351-.586.8v1.2c0,.5.2.8.586.8h14.465c.147,0,.293.2.293.351v.852a.332.332,0,0,1-.293.351H-34.094c-.293,0-.586.351-.586.8v1.354c0,.5.293.8.586.8H-18.6c.147,0,.293.2.293.351v1.053a.332.332,0,0,1-.293.351Z" transform="translate(39.323 -179.554)" fill="#727272"/>
                </g>
                <g id="g572" transform="translate(22.135 0.401)">
                  <path id="path574" d="M-38.732,190.887c-.44,0-.733-.5-.733-1.053v-9.227c0-.552.293-1.053.733-1.053h19.548c.147,0,.293.2.293.351v1a.332.332,0,0,1-.293.351h-15.2c-.293,0-.489.351-.489.8v1.454c0,.5.2.8.489.8h14.465c.147,0,.293.2.293.351v.8a.332.332,0,0,1-.293.351H-34.383c-.293,0-.489.351-.489.8v1.5c0,.5.293.8.586.8h15.491c.147,0,.293.2.293.351v1a.332.332,0,0,1-.293.351Z" transform="translate(39.465 -179.554)" fill="#7c7c7c"/>
                </g>
                <g id="g576" transform="translate(22.242 0.439)">
                  <path id="path578" d="M-38.59,190.977c-.342,0-.733-.5-.733-1.053V180.9c0-.552.293-1.053.733-1.053h19.5c.147,0,.293.2.293.351v.853a.332.332,0,0,1-.293.351h-15.2c-.293,0-.489.351-.489.8v1.5c0,.5.2.8.489.8h14.465c.147,0,.293.2.293.351v.652a.332.332,0,0,1-.293.351H-34.339c-.293,0-.489.351-.489.8v1.655c0,.5.293.8.586.8H-18.75c.147,0,.293.2.293.351v.852a.332.332,0,0,1-.293.351Z" transform="translate(39.323 -179.844)" fill="#878787"/>
                </g>
                <g id="g580" transform="translate(22.251 0.527)">
                  <path id="path582" d="M-38.732,191.312c-.342,0-.733-.5-.733-1.053v-8.926c0-.552.293-1.053.733-1.053H-19.38c.147,0,.293.2.293.351v.8a.332.332,0,0,1-.293.351h-15.2c-.293,0-.489.351-.489.8v1.655c0,.5.2.8.489.8h14.465c.147,0,.293.2.293.351v.5a.332.332,0,0,1-.293.351H-34.676c-.293,0-.489.351-.489.8v1.705c0,.5.293.8.586.8h15.491c.147,0,.293.2.293.351v1a.332.332,0,0,1-.293.351l-19.645.05Z" transform="translate(39.465 -180.279)" fill="#929292"/>
                </g>
                <g id="g584" transform="translate(22.309 0.514)">
                  <path id="path586" d="M-38.732,191.357c-.342,0-.733-.5-.733-1.053v-8.826c0-.552.293-1.053.733-1.053h19.205c.147,0,.293.2.293.351v.552a.332.332,0,0,1-.293.351h-15.2c-.293,0-.489.351-.489.8v1.705c0,.5.2.8.489.8h14.514c.147,0,.293.2.293.351v.8a.332.332,0,0,1-.293.351H-34.725c-.293,0-.489.351-.489.8V189.2c0,.5.293.8.586.8h15.491c.147,0,.293.2.293.351v.552a.332.332,0,0,1-.293.351l-19.6.1Z" transform="translate(39.465 -180.425)" fill="#9d9d9d"/>
                </g>
                <g id="g588" transform="translate(22.367 0.702)">
                  <path id="path590" d="M-38.732,191.882c-.342,0-.733-.5-.733-1.053V182.2c0-.552.293-1.053.733-1.053h19.059c.147,0,.293.2.293.351v.5a.332.332,0,0,1-.293.351h-15.2c-.293,0-.489.351-.489.8v1.906c0,.5.2.8.489.8h14.514c.147,0,.293.2.293.351v.351a.332.332,0,0,1-.293.351H-34.871c-.293,0-.489.351-.489.8l-.049,2.006c0,.5.293.8.586.8h15.491c.147,0,.293.2.293.351v.451a.332.332,0,0,1-.293.351Z" transform="translate(39.465 -181.15)" fill="#a8a8a8"/>
                </g>
                <g id="g592" transform="translate(22.425 0.589)">
                  <path id="path594" d="M-38.732,191.687c-.342,0-.733-.5-.733-1.053v-8.575c0-.552.293-1.053.733-1.053h18.961c.147,0,.293.2.293.351v.351a.332.332,0,0,1-.293.351H-35.018c-.293,0-.489.351-.489.8v2.006c0,.5.2.8.489.8H-20.5c.147,0,.293.2.293.351v.3a.332.332,0,0,1-.293.351H-35.018c-.293,0-.489.351-.489.8l-.049,2.156c0,.351.293.8.586.8h15.443c.147,0,.293.2.293.351v.3a.332.332,0,0,1-.293.351Z" transform="translate(39.465 -181.005)" fill="#b3b3b3"/>
                </g>
              </g>
            </g>
          </g>
        </g>
      </g>
      <g id="g596" transform="translate(106.979 7.479)">
        <g id="g598">
          <g id="g604">
            <g id="g606">
              <path id="path614" d="M497.625-385.173l.2,4.563,4.154.5h14.514c.147,0,.2-.2.342-.351h0l.049-.2.049-.5c.049-.3-.147-.351-.293-.351H501.877c-.293,0-.489-.351-.489-.8h0v-1.705c0-.351.2-.8.489-.8h15.247c.147,0,.2-.2.293-.351h0l.2-.652c.049-.3-.147-.351-.293-.351H498.114c-.2-.2-.489.451-.489,1" transform="translate(-497.625 386.213)" fill="url(#linear-gradient-9)"/>
            </g>
          </g>
        </g>
      </g>
      <g id="g616" transform="translate(107.028 13.082)">
        <g id="g618">
          <g id="g624">
            <g id="g626">
              <path id="path638" d="M497.962-369.994s-.2,2.808-.2,3.911h0c0,1.153.293,1.153,1.026,1.153h18.619c.342,0,.342,0,.489-.351h0c.147-.3.293-.8.2-.853h0s-14.905.3-15.491.3h0c-.586,0-1.075-.1-1.075-.8h0v-2.156c0-.5.049-.652.635-.652h14.172c.44,0,.489,0,.635-.552h-19.01Z" transform="translate(-497.767 369.994)" fill="url(#linear-gradient-10)"/>
            </g>
          </g>
        </g>
      </g>
      <g id="g640" transform="translate(110.751 16.342)">
        <g id="Group_2962" data-name="Group 2962" transform="translate(0 0)">
          <g id="Group_2961" data-name="Group 2961">
            <g id="Group_2960" data-name="Group 2960">
              <g id="g642">
                <g id="g648">
                  <path id="path650" d="M-75.523,210.4H-90.868c-.293,0-.44-.3-.489-.351-.049-.1-.586-.2-.586.552,0,.351.049.8.489.8h15.3a1.12,1.12,0,0,0,.586-.1,4.805,4.805,0,0,1,.2-.5c.147-.251,0-.4-.147-.4" transform="translate(91.943 -209.982)" fill="#fff"/>
                </g>
              </g>
            </g>
          </g>
        </g>
      </g>
    </g>
  </g>
</svg>
