<svg xmlns="http://www.w3.org/2000/svg" width="15.769" height="15.752" viewBox="0 0 15.769 15.752">
  <g id="Group_2928" data-name="Group 2928" transform="translate(0.001 -0.013)">
    <g id="Group_2925" data-name="Group 2925" transform="translate(-0.001 0.013)">
      <path id="Path_71" data-name="Path 71" d="M16.111,3.946a.657.657,0,0,0,.657-.657V1.318a.657.657,0,0,0-.657-.657H12.169a.657.657,0,0,0-.657.657V3.289a.657.657,0,0,0,.657.657h1.314v1.7L11.9,7.232H5.871L4.285,5.646v-1.4l.8.315a.658.658,0,0,0,.852-.371l.721-1.834A.657.657,0,0,0,6.288,1.5L2.619.058a.656.656,0,0,0-.852.371L1.045,2.263a.657.657,0,0,0,.371.852l1.555.612V5.646L1.192,7.424a.656.656,0,0,0,0,.929l1.779,1.779v1.226l-.352-.139a.664.664,0,0,0-.5.009.657.657,0,0,0-.349.362l-.721,1.834a.657.657,0,0,0,.371.852l3.669,1.442a.649.649,0,0,0,.24.046.657.657,0,0,0,.612-.417l.721-1.834a.656.656,0,0,0-.371-.852l-2-.788V10.132L5.871,8.546H11.9l1.586,1.586v1.7H12.169a.657.657,0,0,0-.657.657v1.971a.657.657,0,0,0,.657.657h3.942a.657.657,0,0,0,.657-.657V12.488a.657.657,0,0,0-.657-.657H14.8v-1.7l1.779-1.779a.656.656,0,0,0,0-.929L14.8,5.646v-1.7Z" transform="translate(-0.999 -0.013)" fill="#b9b9b9" fill-rule="evenodd"/>
    </g>
  </g>
</svg>
