<svg xmlns="http://www.w3.org/2000/svg" width="15.791" height="16.659" viewBox="0 0 15.791 16.659">
  <g id="noun_Car_Seat_761210" data-name="noun_Car Seat_761210" transform="translate(-2.393 -0.003)">
    <path id="Path_68" data-name="Path 68" d="M13.573,33.981s-3.149-10.029-3-10.745,1.566-1,2.549-.25,2.666,6.6,2.516,7.364S13.823,31.332,13.573,33.981Z" transform="translate(-6.814 -18.785)" fill="#b9b9b9"/>
    <path id="Path_69" data-name="Path 69" d="M3.527,4.017S2.161.585,2.427.252A1.774,1.774,0,0,1,4.593.535S5.809,2.568,5.693,3s-.25.516-.566.516C4.826,3.518,3.894,3.4,3.527,4.017Z" transform="translate(0 0)" fill="#b9b9b9"/>
    <rect id="Rectangle_2325" data-name="Rectangle 2325" width="9.663" height="0.8" transform="translate(7.659 15.862)" fill="#b9b9b9"/>
    <path id="Path_70" data-name="Path 70" d="M42.279,72.121a2.926,2.926,0,0,0-.616-3.765c-1.083-.883-6.814-.333-8.013.533A4.292,4.292,0,0,0,31.8,72.121Z" transform="translate(-24.508 -56.592)" fill="#b9b9b9"/>
  </g>
</svg>
