<svg xmlns="http://www.w3.org/2000/svg" width="60.04" height="79" viewBox="0 0 60.04 79">
  <g id="noun_car_insurance_732186" data-name="noun_car insurance_732186" transform="translate(-13 -7)">
    <g id="Group_2912" data-name="Group 2912" transform="translate(13 7)">
      <g id="Group_2911" data-name="Group 2911">
        <path id="Path_58" data-name="Path 58" d="M71.46,25.96A17.4,17.4,0,0,1,54.08,8.58,1.58,1.58,0,0,0,52.5,7H33.54a1.581,1.581,0,0,0-1.58,1.58A17.4,17.4,0,0,1,14.58,25.96,1.581,1.581,0,0,0,13,27.54V46.5c0,18.053,27.909,38.348,29.1,39.2a1.582,1.582,0,0,0,1.845,0c1.188-.855,29.1-21.15,29.1-39.2V27.54A1.58,1.58,0,0,0,71.46,25.96ZM69.88,46.5c0,14.714-22.038,32.282-26.86,35.948C38.2,78.782,16.16,61.224,16.16,46.5V29.06a20.573,20.573,0,0,0,18.9-18.9H50.98a20.573,20.573,0,0,0,18.9,18.9Z" transform="translate(-13 -7)" fill="#4ea069"/>
        <path id="Path_59" data-name="Path 59" d="M49.86,32.48H47.839l-2.8-8.4A1.58,1.58,0,0,0,43.54,23H30.9a1.58,1.58,0,0,0-1.5,1.081S27.426,30,26.6,32.48H24.58A1.581,1.581,0,0,0,23,34.06v9.48a1.58,1.58,0,0,0,1.58,1.58h4.74V46.7a1.58,1.58,0,0,0,3.16,0V45.12h9.48V46.7a1.58,1.58,0,0,0,3.16,0V45.12h4.74a1.579,1.579,0,0,0,1.58-1.58V34.06A1.58,1.58,0,0,0,49.86,32.48ZM30.819,29.819l1.22-3.659H42.4l2.108,6.32H29.925C30.173,31.758,30.462,30.889,30.819,29.819ZM48.28,41.96H26.16V35.64h1.5a2.851,2.851,0,0,0,.371.043.86.86,0,0,0,.281-.043H48.28Z" transform="translate(-7.2 2.28)" fill="#4ea069"/>
      </g>
    </g>
  </g>
</svg>
