<svg id="noun_Car_72" xmlns="http://www.w3.org/2000/svg" width="16" height="13.384" viewBox="0 0 16 13.384">
  <path id="Path_60" data-name="Path 60" d="M15.727,43.753" transform="translate(-13.211 -36.753)" fill="#b9b9b9"/>
  <path id="Path_61" data-name="Path 61" d="M14.548,4.591,13.236,1.2a1.787,1.787,0,0,0-1.8-1.2H4.548a1.8,1.8,0,0,0-1.8,1.2L1.441,4.591A1.841,1.841,0,0,0,0,6.43v4.312H1.28v1.376a1.2,1.2,0,1,0,2.4,0V10.742h8.634v1.376a1.206,1.206,0,1,0,2.408,0V10.742H16V6.43A1.85,1.85,0,0,0,14.548,4.591ZM2.516,8.14A1.14,1.14,0,1,1,3.624,7,1.122,1.122,0,0,1,2.516,8.14ZM8,4.56H2.807L3.8,1.893c.119-.379.3-.649.742-.656h6.924c.431.007.617.277.742.656l.989,2.667Zm5.484,3.58A1.14,1.14,0,1,1,14.591,7,1.13,1.13,0,0,1,13.484,8.14Z" transform="translate(0)" fill="#b9b9b9"/>
  <path id="Path_62" data-name="Path 62" d="M84.274,43.753" transform="translate(-70.79 -36.753)" fill="#b9b9b9"/>
</svg>
