<svg xmlns="http://www.w3.org/2000/svg" width="18.687" height="13.384" viewBox="0 0 18.687 13.384">
  <g id="noun_car_engine_1694483" data-name="noun_car engine_1694483" transform="translate(21.5 -61.7)">
    <g id="Group_2921" data-name="Group 2921" transform="translate(-21.5 61.7)">
      <g id="Group_2920" data-name="Group 2920" transform="translate(0 0)">
        <path id="Path_63" data-name="Path 63" d="M25.436,42.822H18.921a.525.525,0,0,1-.148-.03l-2.408-1.049h-2.5a.366.366,0,0,1-.369-.369V33.324a.366.366,0,0,1,.369-.369h1.3V31.669a.366.366,0,0,1,.369-.369h7.194a.366.366,0,0,1,.369.369v1.92h2.334a.366.366,0,0,1,.369.369v1.078h1.064V33.959a.366.366,0,0,1,.369-.369h1.8a.354.354,0,0,1,.325.207l.9,1.787a.3.3,0,0,1,.044.162v3.4a.288.288,0,0,1-.015.118l-.9,2.5a.383.383,0,0,1-.355.251h-1.8a.366.366,0,0,1-.369-.369V40.562H25.805v1.92A.371.371,0,0,1,25.436,42.822Z" transform="translate(-11.624 -29.439)" fill="#b9b9b9"/>
        <path id="Path_64" data-name="Path 64" d="M49.569,22.434a.366.366,0,0,1-.369-.369v-1.6a.369.369,0,0,1,.739,0v1.61A.363.363,0,0,1,49.569,22.434Z" transform="translate(-42.05 -19.893)" fill="#b9b9b9"/>
        <path id="Path_65" data-name="Path 65" d="M36.917,19.439H31.569a.369.369,0,0,1,0-.739h5.348a.369.369,0,0,1,0,.739Z" transform="translate(-26.709 -18.7)" fill="#b9b9b9"/>
        <path id="Path_66" data-name="Path 66" d="M4.084,71.339H2.769a.369.369,0,0,1,0-.739H4.084a.366.366,0,0,1,.369.369A.375.375,0,0,1,4.084,71.339Z" transform="translate(-2.164 -62.933)" fill="#b9b9b9"/>
        <path id="Path_67" data-name="Path 67" d="M1.169,53.513A.366.366,0,0,1,.8,53.144V45.669a.369.369,0,0,1,.739,0v7.475A.375.375,0,0,1,1.169,53.513Z" transform="translate(-0.8 -41.371)" fill="#b9b9b9"/>
      </g>
    </g>
  </g>
</svg>
