<svg xmlns="http://www.w3.org/2000/svg" xmlns:xlink="http://www.w3.org/1999/xlink" width="149.811" height="46.914" viewBox="0 0 149.811 46.914">
  <defs>
    <linearGradient id="linear-gradient" x1="0.5" y1="32.634" x2="0.5" y2="31.633" gradientUnits="objectBoundingBox">
      <stop offset="0" stop-color="#000643"/>
      <stop offset="0.214" stop-color="#000747"/>
      <stop offset="0.224" stop-color="#00084a"/>
      <stop offset="0.349" stop-color="#001066"/>
      <stop offset="0.473" stop-color="#00157b"/>
      <stop offset="0.596" stop-color="#001987"/>
      <stop offset="0.716" stop-color="#001a8b"/>
    </linearGradient>
  </defs>
  <g id="_5d0de79b5d5541561192347" data-name="5d0de79b5d5541561192347" transform="translate(-0.049 -115.2)">
    <g id="Group_2975" data-name="Group 2975" transform="translate(0.049 115.2)">
      <g id="Group_2972" data-name="Group 2972" transform="translate(9.939)">
        <g id="Group_2966" data-name="Group 2966" transform="translate(51.907 0.133)">
          <path id="Path_246" data-name="Path 246" d="M200.017,144.6s-4.961,7.292-4.994,7.325v5.793h-3.829v-5.66c-.033-.067-5.394-7.458-5.394-7.458h4.395s3.6,4.661,3.7,4.728c.067-.067,3.529-4.728,3.529-4.728Z" transform="translate(-185.8 -144.6)" fill="#231f20"/>
        </g>
        <g id="Group_2967" data-name="Group 2967" transform="translate(82.939 0.2)">
          <path id="Path_247" data-name="Path 247" d="M279,144.8h3.829v10.655h8.624v2.4H279Z" transform="translate(-279 -144.8)" fill="#231f20"/>
        </g>
        <g id="Group_2968" data-name="Group 2968" transform="translate(98.521 0.133)">
          <path id="Path_248" data-name="Path 248" d="M325.8,144.6h12.552V147h-8.79v2.93h8.624v2.464h-8.624v2.93h8.956v2.4H325.8Z" transform="translate(-325.8 -144.6)" fill="#231f20"/>
        </g>
        <g id="Group_2969" data-name="Group 2969" transform="translate(18.046 0.2)">
          <path id="Path_249" data-name="Path 249" d="M84.1,144.8v12.985h3.829v-5.261h7.958v5.261h3.8V144.8h-3.8v5.327H87.929V144.8Z" transform="translate(-84.1 -144.8)" fill="#231f20"/>
        </g>
        <g id="Group_2970" data-name="Group 2970" transform="translate(36.825 0.1)">
          <path id="Path_250" data-name="Path 250" d="M140.5,144.533h8.657c4.395,0,5.76,1.9,5.76,3.7,0,1.631-1.6,3.13-4.129,3.5,1.065,1.232,4.894,5.86,4.894,5.86h-4.262s-3.929-5.727-4.828-7.092c3.862.333,4.495-.832,4.495-1.9,0-1.3-3.063-2.064-6.493-1.631v10.655h-4.029V144.5l-.067.033Z" transform="translate(-140.5 -144.5)" fill="#231f20"/>
        </g>
        <g id="Group_2971" data-name="Group 2971" transform="translate(114.27 0.1)">
          <path id="Path_251" data-name="Path 251" d="M373.1,144.533h8.657c4.4,0,5.76,1.9,5.76,3.7,0,1.7-1.6,3.2-4.129,3.5,1.065,1.232,4.894,5.86,4.894,5.86h-4.262s-3.929-5.727-4.828-7.159c3.862.333,4.495-.832,4.495-1.9,0-1.365-3.063-2.064-6.493-1.7v10.721h-4.029V144.5l-.067.033Z" transform="translate(-373.1 -144.5)" fill="#231f20"/>
        </g>
        <path id="Path_252" data-name="Path 252" d="M231.467,148.429c0,2.2,1.132,3.263,3.862,3.9.566.133,1.3.333,2.863.6,1.365.266,2.231.533,2.231,1.232,0,.4-.2,1.432-3.263,1.432a18.085,18.085,0,0,1-5.394-.9l-.366,2.53a29.669,29.669,0,0,0,5.96.7c3.7,0,7.192-1.032,7.192-4.1,0-2.131-1.232-3.263-3.8-3.762-1.132-.266-2.331-.466-3.2-.666-1.232-.2-2-.466-2-1.232,0-.666.5-1.032,2.93-1.032a19.509,19.509,0,0,1,4.728.7l.3-2.331a32.626,32.626,0,0,0-6.16-.7c-2.364,0-5.893.533-5.893,3.629" transform="translate(-164.31 -144.6)" fill="#231f20"/>
        <path id="Path_253" data-name="Path 253" d="M29.9,150.892c0,4.428,4.3,6.559,9.123,6.559a28.42,28.42,0,0,0,5.56-.6l.366-2.53a35.832,35.832,0,0,1-5.227.533c-2.5,0-6.06-1.165-6.06-4.029s3.529-4.029,6.06-4.029a35.829,35.829,0,0,1,5.227.533l-.366-2.53a28.059,28.059,0,0,0-5.56-.6c-4.828.133-9.123,2.264-9.123,6.692" transform="translate(-29.9 -144.2)" fill="#231f20"/>
      </g>
      <g id="Group_2974" data-name="Group 2974" transform="translate(0 22.74)">
        <path id="Path_254" data-name="Path 254" d="M98.956,222.292c.6,0,2.963,0,4.661-.067-.033.067-.1.133-.133.2a22.409,22.409,0,0,1-2.2,2.6H93.329s3.1.4,3.163.766c.433,0,2.63-.133,4.2-.2a7.873,7.873,0,0,1-.8.766c1.432-1.432-.633.7-.166.2a.883.883,0,0,1,.166-.2l-.2.2a24.086,24.086,0,0,1-9.423,5.061,16.547,16.547,0,0,1-3.729.9,9.192,9.192,0,0,0-1.232.266c.233,0,6.06.266,10.521-1.9a27.431,27.431,0,0,0,8.257-6.293,7.65,7.65,0,0,1,5.094-2.73c1.065-.133,34.028-2.93,34.094-2.93a19.028,19.028,0,0,0,6.459-1.631,5.646,5.646,0,0,0,.466-.333,2.854,2.854,0,0,1-.366.7,24.092,24.092,0,0,1-7.325,6.493c-4.029,1.831-28.767,7.525-33.162,8.457l-2.464.533c-6.592,1.365-14.95,3.13-19.211,3.962a3.066,3.066,0,0,1-2.4-.266c-.366-.2-2-1.1-2.7-1.365a19.666,19.666,0,0,0-6.626-1.3,17.686,17.686,0,0,0-6.626,1.365c-.7.266-2.3,1.165-2.7,1.365a3.066,3.066,0,0,1-2.4.266c-4.262-.766-12.619-2.6-19.211-3.962l-2.431-.533c-4.395-.9-29.133-6.626-33.162-8.457A23.251,23.251,0,0,1,2.1,217.731a4.906,4.906,0,0,1-.366-.7c.133.067.266.2.466.333A19.028,19.028,0,0,0,8.659,219c.067,0,33.062,2.8,34.094,2.93a7.726,7.726,0,0,1,5.094,2.73,27.072,27.072,0,0,0,8.291,6.293c4.462,2.131,10.288,1.831,10.521,1.9a11.413,11.413,0,0,0-1.265-.266,23.345,23.345,0,0,1-3.729-.9,25.005,25.005,0,0,1-9.423-5.061l-.2-.2.2.2c.4.533-1.631-1.631-.2-.2-.2-.2-.466-.466-.8-.832,1.631.067,4.062.2,4.495.2.067-.466,3.163-.766,3.163-.766s-7.059-.067-7.725,0h-.5a22.41,22.41,0,0,1-2.2-2.6c-.033-.067-.1-.133-.133-.2,1.765.133,4.395.133,5.028.133.067-.466,3.5-.832,3.5-.832H47.614a7.185,7.185,0,0,0-4.728-1.565c-.732,0-30.332-1.165-34.394-1.3a21.383,21.383,0,0,1-6.326-1.5A2.826,2.826,0,0,0,1.6,216.9c0-.2.366-.333,1.065-.333l9.855-.2c15.083-.266,43.217-.766,44.516-.766h.3a7.036,7.036,0,0,1,4.362,1.165l.566.333c1.365.766,3.263,1.9,4.928,2,1.765.133,8.424.067,8.723.067.266,0,6.992,0,8.723-.067,1.7-.133,3.529-1.232,4.928-2l.566-.333a7.036,7.036,0,0,1,4.362-1.165h.3c1.265,0,29.4.533,44.516.766l9.855.2c.7,0,1.1.133,1.065.333a4.05,4.05,0,0,0-.566.266,23.706,23.706,0,0,1-6.326,1.5c-4.062.133-33.662,1.3-34.361,1.3a7.185,7.185,0,0,0-4.728,1.565H95.26s3.629.4,3.7.766" transform="translate(-1.084 -214.567)" fill="#fff"/>
        <path id="Path_255" data-name="Path 255" d="M95.56,224.195s3.463.4,3.5.832c.6,0,2.963,0,4.661-.067-.033.067-.1.133-.133.2a22.408,22.408,0,0,1-2.2,2.6H93.429s3.1.4,3.163.766c.433,0,2.63-.133,4.2-.2a7.872,7.872,0,0,1-.8.766c1.432-1.432-.633.7-.166.2a.883.883,0,0,1,.166-.2l-.2.2a24.086,24.086,0,0,1-9.423,5.061,16.547,16.547,0,0,1-3.729.9,11.412,11.412,0,0,0-1.265.266c.233,0,6.06.266,10.521-1.9a27.431,27.431,0,0,0,8.257-6.293,7.65,7.65,0,0,1,5.094-2.73c1.065-.133,34.028-2.93,34.094-2.93a19.028,19.028,0,0,0,6.459-1.631,5.651,5.651,0,0,0,.466-.333,2.855,2.855,0,0,1-.366.7,24.092,24.092,0,0,1-7.325,6.493c-4.029,1.831-28.767,7.525-33.162,8.457l-2.464.533c-6.592,1.365-14.95,3.13-19.211,3.962a3.066,3.066,0,0,1-2.4-.266c-.366-.2-2-1.1-2.7-1.365a19.666,19.666,0,0,0-6.626-1.3,17.686,17.686,0,0,0-6.626,1.365c-.7.266-2.3,1.165-2.7,1.365a3.066,3.066,0,0,1-2.4.266c-4.262-.766-12.619-2.6-19.211-3.962l-2.431-.533c-4.395-.9-29.133-6.626-33.162-8.457a23.251,23.251,0,0,1-7.325-6.493,4.906,4.906,0,0,1-.366-.7c.133.067.266.2.466.333a19.028,19.028,0,0,0,6.459,1.631c.067,0,33.062,2.8,34.094,2.93a7.726,7.726,0,0,1,5.094,2.73,27.072,27.072,0,0,0,8.291,6.293c4.462,2.131,10.288,1.9,10.521,1.9a11.412,11.412,0,0,0-1.265-.266,23.344,23.344,0,0,1-3.729-.9,25.005,25.005,0,0,1-9.423-5.061l-.2-.2.2.2c.4.533-1.631-1.631-.2-.2-.2-.2-.466-.466-.8-.832,1.631.067,4.062.2,4.495.2.067-.466,3.163-.766,3.163-.766s-7.059-.067-7.725,0h-.5a22.409,22.409,0,0,1-2.2-2.6c-.033-.067-.1-.133-.133-.2,1.765.133,4.395.133,5.028.133.067-.466,3.5-.832,3.5-.832" transform="translate(-1.217 -217.302)" fill="#bbbdbf"/>
        <g id="Group_2973" data-name="Group 2973">
          <path id="Path_256" data-name="Path 256" d="M148.23,213.4c-1.032,0-52.607-.9-54.4-.9A7.533,7.533,0,0,0,89,213.731c-1.3.7-3.5,2.131-5.361,2.264-1.765.133-8.69.067-8.69.067s-6.959.067-8.69-.067c-1.865-.133-4.062-1.565-5.361-2.264a7.49,7.49,0,0,0-4.828-1.232c-1.765,0-53.372.9-54.4.9-1.532,0-2.2,1.032-1,3.13a23.186,23.186,0,0,0,7.558,6.692c4.029,1.831,28.667,7.525,33.229,8.524,10.022,2.064,23.806,4.994,24.472,4.928,2.331-.266,4.462-1.964,8.99-1.964s6.626,1.631,8.99,1.964c.7.067,14.483-2.8,24.472-4.928,4.528-.966,29.2-6.626,33.229-8.524a23.186,23.186,0,0,0,7.558-6.692c1.3-2.064.666-3.13-.932-3.13m-50.309,6.826c.6,0,2.963,0,4.661-.067-.033.067-.1.133-.133.2a22.409,22.409,0,0,1-2.2,2.6H92.294s3.1.4,3.163.766c.433,0,2.63-.133,4.2-.2a7.873,7.873,0,0,1-.8.766c1.432-1.432-.633.7-.166.2a.883.883,0,0,1,.166-.2l-.2.2a24.086,24.086,0,0,1-9.423,5.061,16.547,16.547,0,0,1-3.729.9,9.192,9.192,0,0,0-1.232.266c.233,0,6.06.266,10.521-1.9a27.431,27.431,0,0,0,8.257-6.293,7.65,7.65,0,0,1,5.094-2.73c1.065-.133,34.028-2.93,34.094-2.93a19.028,19.028,0,0,0,6.459-1.631,5.646,5.646,0,0,0,.466-.333,2.854,2.854,0,0,1-.366.7,24.092,24.092,0,0,1-7.325,6.493c-4.029,1.831-28.767,7.525-33.162,8.457l-2.464.533c-6.592,1.365-14.95,3.13-19.211,3.962a3.066,3.066,0,0,1-2.4-.266c-.366-.2-2-1.1-2.7-1.365a19.666,19.666,0,0,0-6.626-1.3,17.686,17.686,0,0,0-6.626,1.365c-.7.266-2.3,1.165-2.7,1.365a3.066,3.066,0,0,1-2.4.266c-4.262-.766-12.619-2.6-19.211-3.962l-2.431-.533c-4.395-.9-29.133-6.626-33.162-8.457a23.251,23.251,0,0,1-7.325-6.493,4.906,4.906,0,0,1-.366-.7c.133.067.266.2.466.333a19.028,19.028,0,0,0,6.459,1.631c.067,0,33.062,2.8,34.094,2.93a7.726,7.726,0,0,1,5.094,2.73A27.072,27.072,0,0,0,55.1,228.88c4.462,2.131,10.288,1.831,10.521,1.9a11.413,11.413,0,0,0-1.265-.266,23.345,23.345,0,0,1-3.729-.9,25.005,25.005,0,0,1-9.423-5.061l-.2-.2.2.2c.4.533-1.631-1.631-.2-.2-.2-.2-.466-.466-.8-.832,1.631.067,4.062.2,4.495.2.067-.466,3.163-.766,3.163-.766s-7.059-.067-7.725,0h-.5a22.41,22.41,0,0,1-2.2-2.6c-.033-.067-.1-.133-.133-.2,1.765.133,4.395.133,5.028.133.067-.466,3.5-.832,3.5-.832H46.58a7.185,7.185,0,0,0-4.728-1.565c-.732,0-30.332-1.165-34.394-1.3a21.383,21.383,0,0,1-6.326-1.5,2.826,2.826,0,0,0-.566-.266c0-.2.366-.333,1.065-.333l9.855-.2c15.083-.266,43.217-.766,44.516-.766h.3a7.036,7.036,0,0,1,4.362,1.165l.566.333c1.365.766,3.263,1.9,4.928,2,1.765.133,8.424.067,8.723.067.266,0,6.992,0,8.723-.067,1.7-.133,3.529-1.232,4.928-2l.566-.333a7.036,7.036,0,0,1,4.362-1.165h.3c1.265,0,29.4.533,44.516.766l9.855.2c.7,0,1.1.133,1.065.333a4.05,4.05,0,0,0-.566.266,23.706,23.706,0,0,1-6.326,1.5c-4.062.133-33.662,1.3-34.361,1.3a7.185,7.185,0,0,0-4.728,1.565h-8.99s3.629.4,3.7.766" transform="translate(-0.049 -212.498)" fill="#231f20"/>
        </g>
        <path id="Path_257" data-name="Path 257" d="M207.067,232.8H170.908c-.4,0-.433.067-.2.9A11.041,11.041,0,0,0,176,239.492c1.432.7,6.359.832,11.354.832h3.3c4.994,0,9.889-.133,11.354-.832A10.851,10.851,0,0,0,207.3,233.7c.233-.766.2-.9-.233-.9" transform="translate(-113.79 -226.04)" fill="url(#linear-gradient)"/>
        <path id="Path_258" data-name="Path 258" d="M219.863,238.9l-1.065,1.465v1.2h-.832v-1.2L216.8,238.9h.932l.832.966.766-.966Z" transform="translate(-144.632 -230.109)" fill="#fff"/>
        <path id="Path_259" data-name="Path 259" d="M237,241.564h2.664v-.533h-1.9V238.9H237Z" transform="translate(-158.106 -230.109)" fill="#fff"/>
        <path id="Path_260" data-name="Path 260" d="M247,238.9h2.73v.5h-1.9v.6H249.7v.433h-1.865v.6h1.931v.533H247Z" transform="translate(-164.777 -230.109)" fill="#fff"/>
        <path id="Path_261" data-name="Path 261" d="M195.632,238.9V240h1.731v-1.1h.832v2.664h-.832v-1.132h-1.731v1.132H194.8V238.9Z" transform="translate(-129.957 -230.109)" fill="#fff"/>
        <path id="Path_262" data-name="Path 262" d="M207,238.9h1.865c.966,0,1.232.4,1.232.7,0,.333-.333.666-.9.7.233.266,1.065,1.165,1.065,1.165h-.932s-.866-1.165-1.032-1.432c.832.067.966-.2.966-.4,0-.266-.666-.4-1.4-.333v2.131H207Z" transform="translate(-138.095 -230.109)" fill="#fff"/>
        <path id="Path_263" data-name="Path 263" d="M257.2,238.9h1.865c.966,0,1.232.4,1.232.7,0,.333-.333.666-.9.7.233.266,1.065,1.165,1.065,1.165h-.932s-.866-1.165-1.032-1.432c.832.067.966-.2.966-.4,0-.266-.666-.4-1.4-.333v2.131H257.2V238.9Z" transform="translate(-171.581 -230.109)" fill="#fff"/>
        <path id="Path_264" data-name="Path 264" d="M226.6,239.132c0,.466.233.7.832.832.1,0,.266.067.633.133.3.067.466.133.466.266,0,.067-.033.333-.7.333a5,5,0,0,1-1.165-.2l-.067.6a8.744,8.744,0,0,0,1.265.133c.8,0,1.532-.266,1.532-.9,0-.466-.266-.7-.832-.832a2.858,2.858,0,0,0-.7-.133c-.266-.067-.4-.133-.4-.266s.1-.266.633-.266a7.185,7.185,0,0,1,1.032.133l.067-.533a13.067,13.067,0,0,0-1.332-.133c-.466.067-1.265.2-1.265.832" transform="translate(-151.169 -229.709)" fill="#fff"/>
        <path id="Path_265" data-name="Path 265" d="M183.1,240.151c0,.966.932,1.432,1.964,1.432a9.427,9.427,0,0,0,1.2-.133l.067-.533a8.655,8.655,0,0,1-1.132.133c-.566,0-1.3-.266-1.3-.832,0-.6.766-.832,1.3-.832a10.614,10.614,0,0,1,1.132.133l-.067-.533a10.327,10.327,0,0,0-1.2-.133c-1.065-.133-1.964.3-1.964,1.3" transform="translate(-122.153 -230.062)" fill="#fff"/>
        <path id="Path_266" data-name="Path 266" d="M289.291,236.366h.166a3.374,3.374,0,0,0,.466-.666c.033-.067.1-.133.133-.2-1.765.067-4.129.133-4.661.067-.3.6-4.3,1.032-4.3,1.032s6.959-.1,8.191-.233" transform="translate(-187.523 -227.841)" fill="#fff"/>
        <path id="Path_267" data-name="Path 267" d="M279.493,246.6a11.149,11.149,0,0,0,1.9-.2,4.591,4.591,0,0,1,.7-.7c-.333,0-.732.067-1.1.067-1.332.067-2.764.133-3.1.133-.033.266-4.395.832-4.395.832s4.695-.067,5.993-.133" transform="translate(-182.454 -234.645)" fill="#fff"/>
        <path id="Path_268" data-name="Path 268" d="M151.323,236.565s-4.029-.466-4.3-1.032c-.633,0-3.23,0-5.028-.133.033.067.1.133.133.2.133.2.3.4.433.6.166,0,.333.067.5.067,1.3.166,8.257.3,8.257.3" transform="translate(-94.737 -227.775)" fill="#fff"/>
        <path id="Path_269" data-name="Path 269" d="M159.79,246.732a42.405,42.405,0,0,1-4.395-.832c-.333,0-1.7-.067-3.03-.133-.5,0-1.032-.067-1.465-.067a4.162,4.162,0,0,0,.666.666c.832.133,1.731.2,2.231.266,1.265.033,5.993.1,5.993.1" transform="translate(-100.674 -234.645)" fill="#fff"/>
      </g>
    </g>
  </g>
</svg>
