<svg xmlns="http://www.w3.org/2000/svg" xmlns:xlink="http://www.w3.org/1999/xlink" width="174.401" height="50.137" viewBox="0 0 174.401 50.137">
  <defs>
    <clipPath id="clip-path">
      <rect id="Rectangle_2398" data-name="Rectangle 2398" width="174.401" height="50.137" transform="translate(0 0)" fill="none"/>
    </clipPath>
  </defs>
  <g id="Group_3140" data-name="Group 3140" transform="translate(0 0)">
    <g id="Group_3138" data-name="Group 3138" clip-path="url(#clip-path)">
      <path id="Path_18919" data-name="Path 18919" d="M44.358,23.009l.008,5.54a1.564,1.564,0,0,1-.19.711,2.319,2.319,0,0,1-.2.315,2.257,2.257,0,0,1-.314.328,3.356,3.356,0,0,1-.446.321,3.745,3.745,0,0,1-.6.29l.5,1.111a5.011,5.011,0,0,0,.88-.439,4.667,4.667,0,0,0,.651-.5,3.154,3.154,0,0,0,.456-.522,3.881,3.881,0,0,0,.3-.5,2.823,2.823,0,0,0,.271-1.163l-.008-5.489Z" fill="#0d0d0d"/>
      <path id="Path_18920" data-name="Path 18920" d="M33.489,21.684a.7.7,0,0,0,.212.13.714.714,0,0,0,.512,0,.711.711,0,0,0,.211-.13.593.593,0,0,0,.143-.194.567.567,0,0,0,.051-.239.551.551,0,0,0-.052-.238.638.638,0,0,0-.143-.2.685.685,0,0,0-.212-.133.7.7,0,0,0-.256-.047.682.682,0,0,0-.256.048.671.671,0,0,0-.211.134.611.611,0,0,0-.143.2.581.581,0,0,0,0,.476.585.585,0,0,0,.144.194" fill="#0d0d0d"/>
      <path id="Path_18921" data-name="Path 18921" d="M31.02,27.482a2.779,2.779,0,0,0,.647.885,3.12,3.12,0,0,0,2.132.813l3.163,0a2.2,2.2,0,0,0,.823-.157,2.167,2.167,0,0,0,.672-.423,1.962,1.962,0,0,0,.45-.627,1.824,1.824,0,0,0,.162-.772l-.006-4.18-1.3,0,.006,4.18a.719.719,0,0,1-.065.305.818.818,0,0,1-.173.245.8.8,0,0,1-.259.165.841.841,0,0,1-.321.061l-3.16,0a1.817,1.817,0,0,1-.673-.123,1.719,1.719,0,0,1-.543-.339,1.593,1.593,0,0,1-.366-.5,1.472,1.472,0,0,1-.134-.619l0-2.242-1.3,0,0,2.242a2.539,2.539,0,0,0,.237,1.086" fill="#0d0d0d"/>
      <path id="Path_18922" data-name="Path 18922" d="M35.42,21.682a.716.716,0,0,0,.212.13.677.677,0,0,0,.256.047.66.66,0,0,0,.464-.178.586.586,0,0,0,.139-.671.666.666,0,0,0-.141-.2.634.634,0,0,0-.208-.133.7.7,0,0,0-.256-.047.682.682,0,0,0-.256.048.671.671,0,0,0-.211.134.611.611,0,0,0-.143.2.581.581,0,0,0,0,.476.585.585,0,0,0,.144.194" fill="#0d0d0d"/>
      <path id="Path_18923" data-name="Path 18923" d="M52.349,30.369a.686.686,0,0,0-.257-.047.679.679,0,0,0-.257.048.689.689,0,0,0-.213.133.618.618,0,0,0-.144.2.562.562,0,0,0-.051.238.548.548,0,0,0,.052.238.582.582,0,0,0,.144.194.721.721,0,0,0,.213.13.708.708,0,0,0,.258.047.661.661,0,0,0,.466-.179.567.567,0,0,0,.191-.432A.548.548,0,0,0,52.7,30.7a.644.644,0,0,0-.35-.33" fill="#0d0d0d"/>
      <rect id="Rectangle_2397" data-name="Rectangle 2397" width="1.297" height="8.545" transform="translate(40.488 20.626) rotate(-0.087)" fill="#0d0d0d"/>
      <path id="Path_18924" data-name="Path 18924" d="M47.264,27.956a1.966,1.966,0,0,0,.458.625A2.22,2.22,0,0,0,48.4,29a2.2,2.2,0,0,0,.823.154h.608l3.674-.005,2.349,0,10.357-.015h.607a2.283,2.283,0,0,0,.456-.048h2.273a2.219,2.219,0,0,0,.826-.157,2.158,2.158,0,0,0,.675-.423,2,2,0,0,0,.453-.627,1.8,1.8,0,0,0,.166-.766l-.01-6.575-1.3,0,.009,6.575a.7.7,0,0,1-.064.3.793.793,0,0,1-.176.245.825.825,0,0,1-.265.165.854.854,0,0,1-.322.061h-.757a1.787,1.787,0,0,0,.152-.722l-.01-6.575h-1.3l.009,6.576a.7.7,0,0,1-.064.3.777.777,0,0,1-.176.245.845.845,0,0,1-.265.166.873.873,0,0,1-.322.06H65.466l-.007-4.955-1.3,0,.008,4.955-1.666,0L62.5,22.982l-1.3,0,.007,4.955-1.651,0-.007-4.955-1.3,0,.007,4.955-1.829,0-2.346,0H52.76L52.753,23l-1.3,0,.008,4.955-1.656,0h-.589a.844.844,0,0,1-.321-.06.865.865,0,0,1-.263-.164.769.769,0,0,1-.177-.245.7.7,0,0,1-.066-.3l-.009-6.575-1.3,0,.01,6.575a1.781,1.781,0,0,0,.168.765" fill="#0d0d0d"/>
      <path id="Path_18925" data-name="Path 18925" d="M50.413,30.372a.714.714,0,0,0-.512,0,.665.665,0,0,0-.211.134.6.6,0,0,0-.143.2.581.581,0,0,0,0,.476.6.6,0,0,0,.144.194.716.716,0,0,0,.212.13.7.7,0,0,0,.256.047.682.682,0,0,0,.256-.048.714.714,0,0,0,.211-.131.593.593,0,0,0,.143-.194.562.562,0,0,0,.051-.238.548.548,0,0,0-.052-.238.626.626,0,0,0-.143-.2.685.685,0,0,0-.212-.133" fill="#0d0d0d"/>
      <path id="Path_18926" data-name="Path 18926" d="M2.078,39.9A2.085,2.085,0,0,0,0,41.979l.012,8.158,1.179,0-.012-8.158a.9.9,0,0,1,.9-.9l19.369-.029,0-1.178Z" fill="#0d0d0d"/>
      <path id="Path_18927" data-name="Path 18927" d="M42.876,40.431a3.025,3.025,0,0,0-2.148-.887h-.005l-14.717.021a3.047,3.047,0,0,0-3.038,3.047l.007,4.375a3.042,3.042,0,0,0,3.041,3.038h0L40.739,50a3.04,3.04,0,0,0,3.037-3.046l-.006-4.376a3.025,3.025,0,0,0-.894-2.15m-.822,7.846a1.85,1.85,0,0,1-1.317.548l-14.718.021A1.825,1.825,0,0,1,24.7,48.3a1.853,1.853,0,0,1-.548-1.317l-.006-4.376a1.865,1.865,0,0,1,1.861-1.866l14.717-.022a1.862,1.862,0,0,1,1.866,1.861l.007,4.375a1.852,1.852,0,0,1-.544,1.319" fill="#0d0d0d"/>
      <path id="Path_18928" data-name="Path 18928" d="M47.93,48.814h0a.7.7,0,0,1-.7-.7l-.007-4.35,14.246-.021V42.563l-14.246.02,0-2.872H46.035l.012,8.4a1.883,1.883,0,0,0,1.882,1.88h0l19.6-.029,0-1.179Z" fill="#0d0d0d"/>
      <path id="Path_18929" data-name="Path 18929" d="M71.418,39.5a2.313,2.313,0,0,0-2.309,2.316l.008,5.834a2.316,2.316,0,0,0,2.314,2.31h0l11.874-.018,0-1.178-11.874.017h0A1.134,1.134,0,0,1,70.3,47.647l-.009-5.834a1.135,1.135,0,0,1,1.133-1.136l17.222-.026.014,9.355h1.178l-.016-10.534Z" fill="#0d0d0d"/>
      <path id="Path_18930" data-name="Path 18930" d="M112.145,40.14a2.383,2.383,0,0,0-1.692-.7h0l-18.671.027L91.793,50l1.179,0-.014-9.355,17.493-.026h0a1.217,1.217,0,0,1,1.217,1.216l.011,7.475,1.178,0-.011-7.475a2.384,2.384,0,0,0-.7-1.693" fill="#0d0d0d"/>
      <path id="Path_18931" data-name="Path 18931" d="M116.482,39.432a2.167,2.167,0,0,0-2.161,2.167l.008,5.469a2.167,2.167,0,0,0,2.164,2.161h0l12.849-.019,0-1.178L116.5,48.05h0a.986.986,0,0,1-.985-.983L115.5,41.6a.985.985,0,0,1,.984-.986l17.592-.026.012,8.5h1.179l-.014-9.68Z" fill="#0d0d0d"/>
      <path id="Path_18932" data-name="Path 18932" d="M170.362,12.547l-.38-.6-6.073,5.222.342.5A15.841,15.841,0,0,1,167.008,29.5a11.7,11.7,0,0,1-7.449,8.465,15.852,15.852,0,0,1-1.757.522,1.114,1.114,0,0,0-.375,2l5.307,3.646.3-.119c7.021-2.763,11.375-9.9,11.363-18.614a24.76,24.76,0,0,0-4.039-12.852" fill="#17532b"/>
      <path id="Path_18933" data-name="Path 18933" d="M157.717,26.413a22.84,22.84,0,0,0-.4-4.222,11.343,11.343,0,0,0-4.086-6.971,7.62,7.62,0,0,0-4.883-1.958h-.009c-.357,0-.713.019-1.059.053a10.686,10.686,0,0,0-9.617,10.654,10.117,10.117,0,0,0,3.732,8.1l.166.125h.207s4.532-.024,7.63-.035a15.985,15.985,0,0,1-8.5,8.42l-1.116.49,1.058.606c.19.11,4.7,2.677,7.6,2.867l.231.015.183-.141a22.589,22.589,0,0,0,8.869-18m-7.046-2.157c-.013.094-.032.2-.05.306-.426.016-1.119.037-1.924.038-.787,0-2.759.012-3.379.015-.045-.05-.11-.129-.2-.254l-.039-.052a2.753,2.753,0,0,1-.342-.571,3.265,3.265,0,0,1,1.12-3.992,2.725,2.725,0,0,1,1.349-.328,2.991,2.991,0,0,1,2.618,1.439,5.628,5.628,0,0,1,.882,2.572,3.752,3.752,0,0,1-.03.827" fill="#17532b"/>
      <path id="Path_18934" data-name="Path 18934" d="M101.763,6.973,97.047,1.948,92.111,6.987l4.951,4.848Z" fill="#17532b"/>
      <path id="Path_18935" data-name="Path 18935" d="M127.811,6.455l-4.368-4.594-5.067,5.232,5.082,5.006,4.355-4.421,4.428,4.415L137.1,7.065l-4.876-5.224Z" fill="#17532b"/>
      <path id="Path_18936" data-name="Path 18936" d="M103.935,32.122l.1-.5c.08-.422,1.931-10.425-.878-17.686l-.283-.731-6.385,4.463.31.495a14.3,14.3,0,0,1,1.833,6.51l-14.1.02L84.491.045,77.626,3.49l.042,28.671Z" fill="#17532b"/>
      <path id="Path_18937" data-name="Path 18937" d="M133.486,13.161,127.1,17.625l.307.494a14.363,14.363,0,0,1,1.834,6.51l-14.1.02L115.108,0l-6.865,3.445.042,28.671,26.267-.039.1-.5c.08-.422,1.931-10.425-.878-17.686Z" fill="#17532b"/>
    </g>
  </g>
</svg>
