<svg xmlns="http://www.w3.org/2000/svg" width="78.506" height="78.502" viewBox="0 0 78.506 78.502">
  <g id="noun_Pricing_1626803" transform="translate(0.003)">
    <path id="Path_45" data-name="Path 45" d="M67.2,64.45c.831-1.008.343-2.409-.088-3.645a9.665,9.665,0,0,1-.4-1.334,9.736,9.736,0,0,1,1.318-.325c1.288-.257,2.749-.549,3.194-1.794.436-1.222-.492-2.368-1.312-3.379a9.52,9.52,0,0,1-.832-1.131,9.7,9.7,0,0,1,1.121-.749c1.128-.685,2.408-1.46,2.408-2.787s-1.279-2.1-2.408-2.787a9.766,9.766,0,0,1-1.122-.749,9.525,9.525,0,0,1,.832-1.13c.819-1.01,1.748-2.156,1.312-3.38-.444-1.245-1.905-1.537-3.193-1.794a9.727,9.727,0,0,1-1.318-.325,9.653,9.653,0,0,1,.4-1.334c.431-1.237.919-2.639.089-3.645a2.441,2.441,0,0,0-1.941-.766,11.291,11.291,0,0,0-1.658.173,9.755,9.755,0,0,1-1.285.144h-.069a9.851,9.851,0,0,1-.075-1.376c-.014-1.315-.029-2.8-1.158-3.474A1.961,1.961,0,0,0,60,28.6a5.68,5.68,0,0,0-2.564.946,9.726,9.726,0,0,1-1.231.609,9.859,9.859,0,0,1-.534-1.249c-.468-1.239-1-2.642-2.3-2.875A1.854,1.854,0,0,0,53.046,26c-1.127,0-1.961.966-2.769,1.9a9.331,9.331,0,0,1-.972,1.022,9.307,9.307,0,0,1-.972-1.022c-.808-.934-1.643-1.9-2.77-1.9a1.856,1.856,0,0,0-.326.029c-1.3.233-1.832,1.636-2.3,2.874a9.874,9.874,0,0,1-.535,1.249,9.55,9.55,0,0,1-1.232-.609,5.679,5.679,0,0,0-2.563-.946,1.964,1.964,0,0,0-1.012.267c-1.128.668-1.143,2.158-1.156,3.473a9.842,9.842,0,0,1-.075,1.375H36.3a9.769,9.769,0,0,1-1.286-.144,11.29,11.29,0,0,0-1.658-.173,2.44,2.44,0,0,0-1.941.766c-.829,1.007-.342,2.408.088,3.644a9.674,9.674,0,0,1,.4,1.335,9.727,9.727,0,0,1-1.318.325c-1.289.257-2.749.549-3.194,1.8-.436,1.223.493,2.368,1.312,3.379a9.447,9.447,0,0,1,.832,1.13,9.7,9.7,0,0,1-1.121.749C27.279,47.2,26,47.978,26,49.305s1.279,2.1,2.407,2.786a9.7,9.7,0,0,1,1.121.749,9.519,9.519,0,0,1-.832,1.131c-.819,1.011-1.748,2.157-1.311,3.379.444,1.245,1.905,1.537,3.194,1.794a9.729,9.729,0,0,1,1.317.325,9.672,9.672,0,0,1-.4,1.334c-.43,1.236-.918,2.637-.089,3.644a2.436,2.436,0,0,0,1.935.766h.006a11.294,11.294,0,0,0,1.659-.173A9.672,9.672,0,0,1,36.3,64.9h.069a9.852,9.852,0,0,1,.075,1.377c.013,1.315.028,2.805,1.158,3.473a1.958,1.958,0,0,0,1.011.266,5.671,5.671,0,0,0,2.564-.947,9.845,9.845,0,0,1,1.231-.609,9.959,9.959,0,0,1,.535,1.25c.467,1.238,1,2.641,2.3,2.874a1.884,1.884,0,0,0,.326.029h0c1.126,0,1.961-.967,2.769-1.9a9.351,9.351,0,0,1,.972-1.022,9.33,9.33,0,0,1,.972,1.022c.807.934,1.643,1.9,2.769,1.9a1.849,1.849,0,0,0,.326-.029c1.3-.233,1.833-1.636,2.3-2.874a9.854,9.854,0,0,1,.534-1.248,9.663,9.663,0,0,1,1.231.609A5.668,5.668,0,0,0,60,70.014a1.958,1.958,0,0,0,1.011-.267c1.129-.667,1.145-2.158,1.158-3.474a9.848,9.848,0,0,1,.075-1.376h.069a9.68,9.68,0,0,1,1.287.144,11.29,11.29,0,0,0,1.658.173A2.439,2.439,0,0,0,67.2,64.45Zm-2.4-2.838c.113.325.28.8.361,1.148a11.368,11.368,0,0,1-1.183-.143,11.281,11.281,0,0,0-1.658-.173,2.52,2.52,0,0,0-1.71.533c-.861.738-.874,2.026-.886,3.271,0,.346-.009.853-.05,1.206-.319-.136-.75-.374-1.044-.535a5.793,5.793,0,0,0-2.581-.952,2.062,2.062,0,0,0-.719.125c-1.056.393-1.508,1.591-1.945,2.749-.123.324-.3.8-.462,1.119-.25-.238-.566-.6-.782-.853-.823-.952-1.673-1.937-2.828-1.937s-2,.985-2.828,1.936c-.216.25-.532.616-.782.853-.16-.319-.34-.794-.462-1.117-.437-1.159-.89-2.357-1.946-2.75a2.061,2.061,0,0,0-.718-.125,5.794,5.794,0,0,0-2.58.952c-.295.163-.727.4-1.045.537-.041-.353-.046-.861-.05-1.206-.013-1.246-.026-2.534-.888-3.273a2.518,2.518,0,0,0-1.71-.532,11.281,11.281,0,0,0-1.658.173,11.348,11.348,0,0,1-1.183.143c.08-.344.247-.823.36-1.148.411-1.18.836-2.4.273-3.391s-1.815-1.239-3.028-1.481c-.34-.068-.842-.168-1.179-.275.19-.293.507-.684.722-.949.789-.973,1.6-1.98,1.41-3.11-.19-1.112-1.28-1.773-2.334-2.412a12.078,12.078,0,0,1-1.052-.689,12.073,12.073,0,0,1,1.052-.689c1.054-.639,2.144-1.3,2.334-2.411.195-1.132-.621-2.138-1.41-3.111-.215-.265-.531-.655-.721-.948.337-.107.839-.207,1.179-.275,1.214-.243,2.469-.493,3.028-1.48s.139-2.212-.272-3.392c-.113-.325-.28-.8-.36-1.148a11.324,11.324,0,0,1,1.182.142,11.281,11.281,0,0,0,1.658.173,2.521,2.521,0,0,0,1.711-.534c.861-.738.874-2.026.887-3.271,0-.346.008-.853.049-1.206.32.136.751.374,1.045.536a5.8,5.8,0,0,0,2.581.952,2.053,2.053,0,0,0,.717-.125c1.058-.392,1.51-1.591,1.948-2.75.122-.324.3-.8.462-1.117.25.238.566.6.782.853.823.952,1.674,1.937,2.828,1.937s2.006-.985,2.829-1.937c.216-.25.532-.616.782-.853.16.319.34.794.462,1.118.438,1.159.89,2.357,1.946,2.75a2.057,2.057,0,0,0,.717.125,5.8,5.8,0,0,0,2.581-.952c.295-.162.727-.4,1.045-.537.041.353.046.861.05,1.206.013,1.246.026,2.533.888,3.273a2.522,2.522,0,0,0,1.71.532,11.259,11.259,0,0,0,1.657-.173,11.365,11.365,0,0,1,1.183-.142c-.08.344-.247.823-.361,1.149-.411,1.18-.835,2.4-.273,3.39s1.815,1.239,3.029,1.481c.34.068.843.168,1.179.275-.19.293-.507.683-.722.948-.789.973-1.6,1.979-1.411,3.11.191,1.112,1.281,1.773,2.335,2.411a11.979,11.979,0,0,1,1.052.689,11.982,11.982,0,0,1-1.052.689c-1.054.639-2.144,1.3-2.335,2.411-.193,1.131.622,2.138,1.411,3.111.214.265.531.655.721.949-.337.107-.839.207-1.179.275-1.213.243-2.469.493-3.028,1.48S64.383,60.432,64.794,61.612Z" transform="translate(-10.055 -10.054)" fill="#4ea069"/>
    <path id="Path_46" data-name="Path 46" d="M64.989,53.949l-.025-.021a2.452,2.452,0,0,0,2.044-1.47l.027-.062a2.456,2.456,0,0,0,.2-.965,7.39,7.39,0,0,0-2.109-5.4,7.909,7.909,0,0,0-3.134-1.9l-.01-.71A2.454,2.454,0,0,0,59.532,41h-.038l-2.145.033a2.453,2.453,0,0,0-2.415,2.486l.008.6a8.285,8.285,0,0,0-3.156,1.792,6.8,6.8,0,0,0-2.217,5.24,6.708,6.708,0,0,0,2.31,5.227l-.425.007a2.453,2.453,0,0,0-2.123,1.293l-.039.073A2.453,2.453,0,0,0,49,58.894a7.055,7.055,0,0,0,2.6,5.889,9.221,9.221,0,0,0,3.373,1.654l.005.355a2.453,2.453,0,0,0,2.453,2.419h.036l2.145-.032a2.454,2.454,0,0,0,2.417-2.487l-.005-.386a8.335,8.335,0,0,0,3.141-1.74,7.237,7.237,0,0,0-.179-10.618Zm-1.46,8.793a6.888,6.888,0,0,1-3.983,1.573l.034,2.412-2.144.032-.033-2.41a7.526,7.526,0,0,1-4.28-1.493,4.669,4.669,0,0,1-1.667-3.945l.039-.073,3.835-.061A2.674,2.674,0,0,0,56.2,61a3.376,3.376,0,0,0,2.113.632H58.4a2.909,2.909,0,0,0,1.975-.616,2.041,2.041,0,0,0,.639-1.615,2.12,2.12,0,0,0-.653-1.6,6.463,6.463,0,0,0-2.272-1.133,13.006,13.006,0,0,1-4.55-2.1,4.278,4.278,0,0,1-1.52-3.451,4.339,4.339,0,0,1,1.426-3.4A6.748,6.748,0,0,1,57.421,46.1l-.034-2.618,2.145-.033.037,2.653a6.2,6.2,0,0,1,3.828,1.66,4.905,4.905,0,0,1,1.387,3.656l-.027.062-3.846.059a2.884,2.884,0,0,0-.7-2.039,2.406,2.406,0,0,0-1.82-.687h-.059a2.429,2.429,0,0,0-1.828.629,2.254,2.254,0,0,0-.544,1.623,1.958,1.958,0,0,0,.621,1.495A7.458,7.458,0,0,0,58.9,53.74a12.156,12.156,0,0,1,4.512,2.09,4.38,4.38,0,0,1,1.531,3.483A4.308,4.308,0,0,1,63.529,62.742Z" transform="translate(-18.95 -15.855)" fill="#4ea069"/>
    <path id="Path_47" data-name="Path 47" d="M56.405,7.19l-.29,1.657a1.933,1.933,0,0,0,.367,1.61,1.817,1.817,0,0,0,2.282.322l1.562-.8,1.56.8a2.2,2.2,0,0,0,1.005.261,1.637,1.637,0,0,0,1.278-.583,1.932,1.932,0,0,0,.368-1.609L64.244,7.19l1.236-1.177a1.825,1.825,0,0,0,.6-1.9,1.841,1.841,0,0,0-1.6-1.216l-1.736-.246-.771-1.529a1.761,1.761,0,0,0-3.28,0l-.771,1.527-1.737.246a1.841,1.841,0,0,0-1.6,1.215,1.822,1.822,0,0,0,.591,1.9ZM59.526,4.9l.8-1.582.8,1.582,1.717.243L61.6,6.32l.3,1.709L60.326,7.22l-1.577.809.3-1.709L57.81,5.14Z" transform="translate(-21.075 0)" fill="#4ea069"/>
    <path id="Path_48" data-name="Path 48" d="M9.744,61.4l1.236-1.177A1.742,1.742,0,0,0,9.973,57.1l-1.737-.246-.771-1.529a1.852,1.852,0,0,0-1.64-1.118,1.845,1.845,0,0,0-1.64,1.121l-.771,1.527L1.677,57.1a1.841,1.841,0,0,0-1.6,1.215,1.822,1.822,0,0,0,.591,1.9L1.905,61.4l-.29,1.657a1.933,1.933,0,0,0,.367,1.61,1.817,1.817,0,0,0,2.282.322l1.562-.8,1.56.8a2.2,2.2,0,0,0,1,.261,1.638,1.638,0,0,0,1.278-.583,1.933,1.933,0,0,0,.368-1.609ZM7.4,62.237l-1.575-.809-1.577.809.3-1.709L3.31,59.348,5.026,59.1l.8-1.582.8,1.582,1.717.243L7.1,60.528Z" transform="translate(0 -20.962)" fill="#4ea069"/>
    <path id="Path_49" data-name="Path 49" d="M120.576,58.317a1.841,1.841,0,0,0-1.6-1.216l-1.736-.246-.771-1.529a1.761,1.761,0,0,0-3.28,0l-.771,1.527-1.737.246a1.842,1.842,0,0,0-1.6,1.215,1.823,1.823,0,0,0,.591,1.9l1.24,1.181-.29,1.656a1.933,1.933,0,0,0,.366,1.61,1.813,1.813,0,0,0,2.283.322l1.561-.8,1.56.8a2.2,2.2,0,0,0,1.005.261,1.637,1.637,0,0,0,1.278-.583,1.932,1.932,0,0,0,.368-1.609l-.292-1.658,1.236-1.177A1.825,1.825,0,0,0,120.576,58.317ZM116.4,62.237l-1.575-.809-1.578.809.3-1.709-1.239-1.179,1.716-.243.8-1.582.8,1.582,1.716.243-1.239,1.18Z" transform="translate(-42.15 -20.962)" fill="#4ea069"/>
    <path id="Path_50" data-name="Path 50" d="M64.473,112.894l-1.736-.246-.771-1.529a1.761,1.761,0,0,0-3.28,0l-.771,1.527-1.737.246a1.841,1.841,0,0,0-1.6,1.215,1.822,1.822,0,0,0,.591,1.9l1.24,1.181-.29,1.657a1.933,1.933,0,0,0,.367,1.61,1.817,1.817,0,0,0,2.282.322l1.562-.8,1.56.8a2.2,2.2,0,0,0,1.005.261,1.637,1.637,0,0,0,1.278-.583,1.932,1.932,0,0,0,.368-1.609l-.292-1.658,1.236-1.177a1.742,1.742,0,0,0-1.008-3.119ZM61.9,118.029l-1.575-.809-1.577.809.3-1.709L57.81,115.14l1.716-.243.8-1.582.8,1.582,1.717.243L61.6,116.32Z" transform="translate(-21.075 -42.537)" fill="#4ea069"/>
    <path id="Path_51" data-name="Path 51" d="M102.347,94.976l-1.784.043L99.6,93.643a1.861,1.861,0,0,0-1.54-.886,1.814,1.814,0,0,0-1.7,1.392L95.82,95.82l-1.669.537a1.857,1.857,0,0,0-1.375,1.46,1.831,1.831,0,0,0,.865,1.78l1.379.967-.042,1.707a1.932,1.932,0,0,0,.511,1.458,1.607,1.607,0,0,0,1.163.488,2.079,2.079,0,0,0,1.243-.454l1.4-1.054,1.627.536a1.837,1.837,0,0,0,2.118-.567,1.88,1.88,0,0,0,.2-1.754l-.534-1.625,1.054-1.4a1.849,1.849,0,0,0,.285-1.973A1.8,1.8,0,0,0,102.347,94.976Zm-2.369,3.871.553,1.684-1.682-.555-1.386,1.041.042-1.709-1.421-1,1.685-.542.544-1.687,1,1.421,1.71-.041Z" transform="translate(-35.871 -35.869)" fill="#4ea069"/>
    <path id="Path_52" data-name="Path 52" d="M15.859,21.814l1.379.967L17.2,24.487a1.933,1.933,0,0,0,.51,1.459,1.606,1.606,0,0,0,1.163.488,2.082,2.082,0,0,0,1.244-.454l1.4-1.054,1.626.536a1.838,1.838,0,0,0,2.119-.566,1.882,1.882,0,0,0,.2-1.755l-.534-1.624,1.054-1.4a1.849,1.849,0,0,0,.284-1.973,1.8,1.8,0,0,0-1.7-.946l-1.782.043-.966-1.377a1.861,1.861,0,0,0-1.54-.886,1.815,1.815,0,0,0-1.7,1.392l-.538,1.671-1.668.537a1.854,1.854,0,0,0-1.375,1.458A1.831,1.831,0,0,0,15.859,21.814Zm4.128-1.826.544-1.687,1,1.42,1.71-.041L22.2,21.066l.553,1.684-1.682-.555-1.386,1.042.042-1.71-1.42-1Z" transform="translate(-5.792 -5.791)" fill="#4ea069"/>
    <path id="Path_53" data-name="Path 53" d="M26.625,96.359l-1.671-.538-.537-1.669a1.814,1.814,0,0,0-1.7-1.393,1.86,1.86,0,0,0-1.539.883l-.967,1.379L18.5,94.979h-.075a1.8,1.8,0,0,0-1.7.946,1.847,1.847,0,0,0,.285,1.972l1.054,1.4-.536,1.627a1.888,1.888,0,0,0,.2,1.756,1.84,1.84,0,0,0,2.117.561l1.625-.534,1.4,1.054a2.083,2.083,0,0,0,1.245.455,1.606,1.606,0,0,0,1.163-.488,1.929,1.929,0,0,0,.511-1.453l-.042-1.712,1.376-.965A1.83,1.83,0,0,0,28,97.819,1.854,1.854,0,0,0,26.625,96.359ZM23.27,99.31l.041,1.71-1.385-1.041-1.687.561.557-1.69-1.041-1.386,1.709.042,1-1.421L23,97.769l1.687.544Z" transform="translate(-6.404 -35.87)" fill="#4ea069"/>
    <path id="Path_54" data-name="Path 54" d="M95.848,21.517l-.536,1.625a1.888,1.888,0,0,0,.2,1.757,1.836,1.836,0,0,0,2.118.562l1.625-.534,1.4,1.055a2.085,2.085,0,0,0,1.243.453,1.608,1.608,0,0,0,1.163-.488,1.929,1.929,0,0,0,.511-1.454l-.042-1.712,1.377-.965a1.83,1.83,0,0,0,.868-1.779,1.855,1.855,0,0,0-1.375-1.46l-1.671-.538L102.2,16.37a1.813,1.813,0,0,0-1.7-1.393,1.862,1.862,0,0,0-1.539.883l-.967,1.379L96.287,17.2h-.078a1.8,1.8,0,0,0-1.7.946,1.847,1.847,0,0,0,.285,1.972Zm3.4-1.794,1-1.421.542,1.685,1.687.544-1.42,1,.041,1.711L99.708,22.2l-1.686.561.557-1.69-1.042-1.386Z" transform="translate(-36.482 -5.791)" fill="#4ea069"/>
  </g>
</svg>
