<svg xmlns="http://www.w3.org/2000/svg" xmlns:xlink="http://www.w3.org/1999/xlink" width="71.165" height="88.872" viewBox="0 0 71.165 88.872">
  <defs>
    <radialGradient id="radial-gradient" cx="0.436" cy="0.258" r="0.498" gradientUnits="objectBoundingBox">
      <stop offset="0.478" stop-color="#fff"/>
      <stop offset="0.56" stop-color="#f9f9f9"/>
      <stop offset="0.674" stop-color="#e7e7e7"/>
      <stop offset="0.806" stop-color="#c9c9c9"/>
      <stop offset="0.951" stop-color="#a1a1a1"/>
      <stop offset="1" stop-color="#919191"/>
    </radialGradient>
    <linearGradient id="linear-gradient" x1="0.5" y1="0.998" x2="0.5" y2="0.01" gradientUnits="objectBoundingBox">
      <stop offset="0.01" stop-color="#e5e5e5"/>
      <stop offset="0.339" stop-color="#a6a6a6"/>
      <stop offset="0.694" stop-color="#333"/>
      <stop offset="0.845" stop-color="#1a1a1a"/>
      <stop offset="0.948" stop-color="#111"/>
      <stop offset="0.962" stop-color="#141414"/>
      <stop offset="0.973" stop-color="#1d1d1d"/>
      <stop offset="0.982" stop-color="#2d2d2d"/>
      <stop offset="0.991" stop-color="#444"/>
      <stop offset="0.999" stop-color="#616161"/>
      <stop offset="1" stop-color="#666"/>
    </linearGradient>
    <linearGradient id="linear-gradient-2" x1="0.5" y1="0.99" x2="0.5" y2="0.004" gradientUnits="objectBoundingBox">
      <stop offset="0.01" stop-color="#e5e5e5"/>
      <stop offset="0.339" stop-color="#a6a6a6"/>
      <stop offset="0.694" stop-color="#333"/>
      <stop offset="0.845" stop-color="#1a1a1a"/>
      <stop offset="0.954" stop-color="#111"/>
      <stop offset="0.967" stop-color="#141414"/>
      <stop offset="0.976" stop-color="#1d1d1d"/>
      <stop offset="0.984" stop-color="#2d2d2d"/>
      <stop offset="0.992" stop-color="#444"/>
      <stop offset="0.999" stop-color="#616161"/>
      <stop offset="1" stop-color="#666"/>
    </linearGradient>
    <linearGradient id="linear-gradient-3" x1="0.5" y1="0.994" x2="0.5" y2="-0.006" gradientUnits="objectBoundingBox">
      <stop offset="0" stop-color="#333"/>
      <stop offset="0.009" stop-color="#292929"/>
      <stop offset="0.024" stop-color="#1e1e1e"/>
      <stop offset="0.04" stop-color="#1a1a1a"/>
      <stop offset="0.123" stop-color="#151515"/>
      <stop offset="0.226" stop-color="#050505"/>
      <stop offset="0.252"/>
    </linearGradient>
    <linearGradient id="linear-gradient-4" x1="0.5" y1="0.999" x2="0.5" y2="-0.001" gradientUnits="objectBoundingBox">
      <stop offset="0" stop-color="#737373"/>
      <stop offset="0.149" stop-color="#6e6e6e"/>
      <stop offset="0.332" stop-color="#5e5e5e"/>
      <stop offset="0.535" stop-color="#454545"/>
      <stop offset="0.749" stop-color="#222"/>
      <stop offset="0.795" stop-color="#1a1a1a"/>
      <stop offset="0.921"/>
    </linearGradient>
    <linearGradient id="linear-gradient-5" x1="0.5" y1="0.993" x2="0.5" y2="-0.007" gradientUnits="objectBoundingBox">
      <stop offset="0" stop-color="#fff"/>
      <stop offset="0.216" stop-color="#f9f9f9"/>
      <stop offset="0.512" stop-color="#e7e7e7"/>
      <stop offset="0.851" stop-color="#cbcbcb"/>
      <stop offset="0.969" stop-color="#bfbfbf"/>
      <stop offset="0.991" stop-color="#737373"/>
    </linearGradient>
    <linearGradient id="linear-gradient-6" x1="0.5" y1="1.003" x2="0.5" y2="0.003" gradientUnits="objectBoundingBox">
      <stop offset="0.357" stop-color="#bfbfbf"/>
      <stop offset="0.474" stop-color="#bababa"/>
      <stop offset="0.61" stop-color="#acacac"/>
      <stop offset="0.754" stop-color="#959595"/>
      <stop offset="0.903" stop-color="#757575"/>
      <stop offset="0.963" stop-color="#666"/>
      <stop offset="1" stop-color="#333"/>
    </linearGradient>
    <linearGradient id="linear-gradient-7" x1="0.5" y1="1" x2="0.5" gradientUnits="objectBoundingBox">
      <stop offset="0" stop-color="#666"/>
      <stop offset="0.185" stop-color="#5e5e5e"/>
      <stop offset="0.584" stop-color="#515151"/>
      <stop offset="0.97" stop-color="#4d4d4d"/>
      <stop offset="0.988" stop-color="#757575"/>
      <stop offset="1" stop-color="#8c8c8c"/>
    </linearGradient>
    <linearGradient id="linear-gradient-8" x1="0.127" y1="-1.624" x2="0.886" y2="2.724" gradientUnits="objectBoundingBox">
      <stop offset="0.019" stop-color="#666"/>
      <stop offset="0.041" stop-color="#4a4a4a"/>
      <stop offset="0.063" stop-color="#363636"/>
      <stop offset="0.084" stop-color="#292929"/>
      <stop offset="0.105" stop-color="#252525"/>
    </linearGradient>
    <linearGradient id="linear-gradient-9" x1="-0.237" y1="0.274" x2="1.249" y2="0.74" gradientUnits="objectBoundingBox">
      <stop offset="0" stop-color="#595959"/>
      <stop offset="1" stop-color="#737373"/>
    </linearGradient>
    <linearGradient id="linear-gradient-10" x1="0.954" y1="1.977" x2="0.03" y2="-0.925" gradientUnits="objectBoundingBox">
      <stop offset="0.01" stop-color="#595959"/>
      <stop offset="0.025" stop-color="#757575"/>
      <stop offset="0.044" stop-color="#909090"/>
      <stop offset="0.061" stop-color="#a0a0a0"/>
      <stop offset="0.074" stop-color="#a6a6a6"/>
      <stop offset="0.501" stop-color="#bebebe"/>
      <stop offset="1" stop-color="#bfbfbf"/>
    </linearGradient>
    <linearGradient id="linear-gradient-11" x1="-0.224" y1="0.664" x2="1.206" y2="0.348" gradientUnits="objectBoundingBox">
      <stop offset="0" stop-color="#8c8c8c"/>
      <stop offset="0.987" stop-color="#737373"/>
      <stop offset="1" stop-color="#bfbfbf"/>
    </linearGradient>
    <linearGradient id="linear-gradient-12" x1="0.5" y1="1" x2="0.5" gradientUnits="objectBoundingBox">
      <stop offset="0.019" stop-color="#252525"/>
      <stop offset="0.216" stop-color="#2e2e2e"/>
      <stop offset="0.599" stop-color="#3b3b3b"/>
      <stop offset="0.97" stop-color="#3f3f3f"/>
      <stop offset="0.986" stop-color="#5c5c5c"/>
      <stop offset="1" stop-color="#737373"/>
    </linearGradient>
  </defs>
  <g id="_5e54d56954ddc1582617961" data-name="5e54d56954ddc1582617961" transform="translate(-76.1 -56.9)">
    <path id="Path_158" data-name="Path 158" d="M146.894,101.5c-1.527-3.2-5.059-10.119-8.687-16.705-5.059-9.212-13.03-22.385-13.842-23.483-.239-.286-.382-.525-.573-.62a.433.433,0,0,0-.334-.143,3.486,3.486,0,0,0-1,0h-.573l-8.448-.143c-4.1,0-9.116.143-9.737.191a1.847,1.847,0,0,0-.573.143,1.974,1.974,0,0,0-.62.573c-.764,1.146-8.734,14.271-13.842,23.483-3.58,6.539-7.159,13.46-8.687,16.705a4.691,4.691,0,0,0-.477,1.671,3.742,3.742,0,0,0,.477,1.671c1.527,3.2,5.059,10.119,8.687,16.705,5.059,9.212,13.03,22.385,13.842,23.483a4.622,4.622,0,0,0,.334.43,1.827,1.827,0,0,0,.525.382,3.16,3.16,0,0,0,.955,0h.573l8.5.143c4.1,0,8.925-.1,9.689-.191h.1c.286-.048.43-.1.525-.1.143-.048.286-.191.668-.668.811-1.146,8.734-14.176,13.794-23.435,3.58-6.539,7.159-13.46,8.687-16.705a5,5,0,0,0,.477-1.766,2.857,2.857,0,0,0-.43-1.623Zm-23.435,3.389c-3.389,7.637-5.823,12.362-9.4,19.235-.191.382-.382.668-.62.668s-.382-.239-.62-.668c-3.58-6.873-5.966-11.646-9.4-19.235a4.264,4.264,0,0,1-.477-1.766,4.067,4.067,0,0,1,.477-1.718c3.389-7.637,5.823-12.362,9.4-19.235.191-.382.382-.668.62-.668h0c.239,0,.382.239.62.668,3.58,6.873,5.966,11.646,9.4,19.235a4.265,4.265,0,0,1,.477,1.766A3.349,3.349,0,0,1,123.459,104.884Z" transform="translate(-1.777 -1.829)" fill="url(#radial-gradient)"/>
    <path id="Path_159" data-name="Path 159" d="M102.451,152.531a10.77,10.77,0,0,1-1.05-2.625v-.239c0-.191-.048-.143-.239.048-.286.286-.811.525-2.052.525H84.027c-.668,0-1.527-.048-1.527,1,0,.62.525,1.861,1.623,4.009,6.014,11.741,12.648,23.435,19.76,34.843L105.076,192c.1.143.239.191.525.191a186.015,186.015,0,0,0,8.162-17.326q-6.014-11.169-11.312-22.337Z" transform="translate(-3.345 -48.426)" fill="url(#linear-gradient)"/>
    <path id="Path_160" data-name="Path 160" d="M130.9,239Z" transform="translate(-28.644 -95.185)" fill="#fff"/>
    <path id="Path_161" data-name="Path 161" d="M173.885,150.117c-.143.191-.62.43-1.623.43H159.8c-5.68,0-5.107-.143-6.587,2.864-.668,1.336-1.336,2.911-2.052,4.2-4.964,10.405-17.135,31.406-18.758,33.983-.62.955-.716,1.05-.239,1.05q4.366.139,8.735.143c7.159,0,9.737-.191,9.737-.191,4.152-6.491,14.08-22.862,21.144-37.086,1.623-3.293,2.434-4.677,2.386-5.393-.1-.143-.191-.048-.286,0Z" transform="translate(-29.15 -48.686)" fill="url(#linear-gradient-2)"/>
    <path id="Path_162" data-name="Path 162" d="M145.781,61c-.286,0-.525.239-.955.859-3.532,5.441-15.655,28.3-20.619,38.995a6.56,6.56,0,0,0-.907,2.577h2.577a4.067,4.067,0,0,1,.477-1.718c3.389-7.637,5.823-12.362,9.4-19.235.191-.382.382-.668.62-.668h0l1-2.911c3.484-8.687,8.4-17.9,8.4-17.9Z" transform="translate(-24.672 -2.143)" fill="url(#linear-gradient-3)"/>
    <path id="Path_163" data-name="Path 163" d="M163.778,123.133a6.42,6.42,0,0,0-.907-2.53c-3.437-7.3-7.016-14.367-11.169-22l-1,2.911c.239,0,.382.239.62.668,3.58,6.873,5.966,11.646,9.4,19.235a4.265,4.265,0,0,1,.477,1.766h0Z" transform="translate(-38.994 -21.797)" fill="url(#linear-gradient-4)"/>
    <path id="Path_164" data-name="Path 164" d="M130.9,192.532c.286,0,.62-.334,1-.955l.43-.668c2.673-4.534,15.417-28.113,20.142-38.231a6.56,6.56,0,0,0,.907-2.577H150.8a3.89,3.89,0,0,1-.477,1.718c-3.389,7.637-5.823,12.362-9.4,19.235-.191.382-.382.668-.62.668l-1,2.912a184.255,184.255,0,0,1-8.4,17.9Z" transform="translate(-28.644 -48.716)" fill="url(#linear-gradient-5)"/>
    <path id="Path_165" data-name="Path 165" d="M136.378,171.569h0c-.239,0-.382-.239-.62-.668-3.58-6.873-5.966-11.646-9.4-19.235a4.265,4.265,0,0,1-.477-1.766H123.3a6.56,6.56,0,0,0,.907,2.577h0c3.437,7.3,7.016,14.367,11.169,22Z" transform="translate(-24.672 -48.612)" fill="url(#linear-gradient-6)"/>
    <path id="Path_166" data-name="Path 166" d="M101.21,192.288a1.678,1.678,0,0,1-.334-.43c-.811-1.145-8.782-14.271-13.842-23.483-3.58-6.539-7.159-13.46-8.687-16.705A4.5,4.5,0,0,1,77.871,150H76.2a5.987,5.987,0,0,0,.62,2.386c1.193,2.577,4.487,9.069,8.734,16.753,4.63,8.4,13.03,22.385,13.937,23.674a3.6,3.6,0,0,0,1.05,1.05Z" transform="translate(-0.052 -48.664)" fill="url(#linear-gradient-7)"/>
    <path id="Path_167" data-name="Path 167" d="M127.2,240.071a2.738,2.738,0,0,0,1.384.382c1.241.1,6.73.191,9.88.191s9.069-.143,9.88-.191a3.032,3.032,0,0,0,1.1-.239l-.668-1.575a1.113,1.113,0,0,1-.525.1h-.1c-.716.1-5.537.191-9.689.191-3.341,0-6.443-.1-8.5-.143H129.4a2.136,2.136,0,0,1-.955,0,1,1,0,0,1-.525-.382l-.716,1.671Z" transform="translate(-26.71 -94.871)" fill="url(#linear-gradient-8)"/>
    <path id="Path_168" data-name="Path 168" d="M197.6,101.807a5.545,5.545,0,0,0-.62-2.386c-1.241-2.625-5.3-10.6-8.734-16.753-4.582-8.257-12.982-22.337-13.937-23.674A3.979,3.979,0,0,0,173.02,57.8l-.62,1.527a2.445,2.445,0,0,1,.573.62c.811,1.146,8.782,14.271,13.842,23.483,3.58,6.539,7.159,13.46,8.687,16.705a4.11,4.11,0,0,1,.477,1.575l1.623.1Z" transform="translate(-50.337 -0.47)" fill="url(#linear-gradient-9)"/>
    <path id="Path_169" data-name="Path 169" d="M127.7,57.33l.668,1.575a1.213,1.213,0,0,1,.573-.143c.62-.048,5.632-.191,9.737-.191,3.341,0,6.778.048,8.448.143h.573a2.354,2.354,0,0,1,1,0,2.326,2.326,0,0,0,.334.143l.62-1.527a3.072,3.072,0,0,0-1.146-.239c-1.289-.1-6.873-.191-9.832-.191-2.577,0-8.544.048-9.975.191A4.422,4.422,0,0,0,127.7,57.33Z" transform="translate(-26.972 0)" fill="url(#linear-gradient-10)"/>
    <path id="Path_170" data-name="Path 170" d="M100.781,57.8a3.58,3.58,0,0,0-1.336,1.241c-.955,1.241-9.355,15.464-13.889,23.578-3.2,5.728-8.257,15.7-8.734,16.8a5.987,5.987,0,0,0-.62,2.386h1.671a3.808,3.808,0,0,1,.477-1.671c1.527-3.2,5.059-10.119,8.687-16.705,5.059-9.212,13.03-22.337,13.842-23.483a1.572,1.572,0,0,1,.62-.573Z" transform="translate(-0.052 -0.47)" fill="url(#linear-gradient-11)"/>
    <path id="Path_171" data-name="Path 171" d="M172.916,193.9a3.222,3.222,0,0,0,1.289-1.193c.907-1.241,9.928-16.371,13.937-23.674s8.257-15.751,8.734-16.753a5.4,5.4,0,0,0,.62-2.386l-1.671-.1a4.094,4.094,0,0,1-.477,1.766c-1.527,3.2-5.059,10.119-8.687,16.705-5.059,9.212-12.982,22.29-13.794,23.435-.334.477-.477.62-.668.668h0l.716,1.527Z" transform="translate(-50.232 -48.559)" fill="url(#linear-gradient-12)"/>
    <path id="Path_172" data-name="Path 172" d="M121.729,99.67c-.143-.286-2.052-4.63-4.248-9.069l-5.155-10.166c-.239-.382-.382-.668-.62-.668s-.382.239-.62.668L105.931,90.6c-2.339,4.677-4.1,8.83-4.248,9.069a4.413,4.413,0,0,0-.477,1.718,5.446,5.446,0,0,0,.477,1.766c.143.286,2.052,4.63,4.248,9.116l5.155,10.119c.191.382.382.668.62.668s.382-.239.62-.668l5.155-10.119c2.2-4.487,4.1-8.782,4.248-9.116a3.417,3.417,0,0,0,0-3.484Zm-.43,3.246h0c-.048.1-2,4.487-4.248,9.116L111.9,122.151c-.1.143-.143.286-.191.286s-.1-.1-.191-.286a2.482,2.482,0,0,0-.143-.239l-5.012-9.88-4.248-9.116v-.048a4.132,4.132,0,0,1-.43-1.527,4.025,4.025,0,0,1,.477-1.527c0-.048.048-.1.1-.239q1.986-4.446,4.1-8.83l5.155-10.119c.1-.143.143-.286.191-.286s.1.143.191.286c0,.048,2.721,5.155,5.155,10.119,2.148,4.391,4.009,8.591,4.248,9.069a3.55,3.55,0,0,1,.43,1.527,4.611,4.611,0,0,1-.43,1.575ZM146.644,99c-1.289-2.673-5.3-10.6-8.734-16.753-4.677-8.448-12.982-22.385-13.937-23.674a2.725,2.725,0,0,0-2.339-1.384h-.143C120.25,57.048,114.9,57,111.658,57c-2.768,0-8.591.048-9.975.191a2.759,2.759,0,0,0-2.339,1.48c-1,1.289-9.5,15.655-13.889,23.578C82.257,88.024,77.2,97.952,76.72,99a5.882,5.882,0,0,0-.62,2.386,5.538,5.538,0,0,0,.62,2.386c1.05,2.291,4.248,8.639,8.734,16.753,4.63,8.448,13.078,22.433,13.937,23.674a2.8,2.8,0,0,0,2.386,1.432c1.289.1,6.873.191,9.88.191,3.246,0,9.069-.143,9.88-.191a2.752,2.752,0,0,0,2.386-1.432c.859-1.193,9.88-16.228,13.937-23.674,3.914-7.112,8.209-15.655,8.734-16.753a5.86,5.86,0,0,0,.62-2.386A4.9,4.9,0,0,0,146.644,99Zm-.43,4.582c-.477,1.1-4.821,9.641-8.687,16.753-4.057,7.4-13.078,22.433-13.937,23.626a2.233,2.233,0,0,1-2.052,1.193c-.811.1-6.587.191-9.832.191-2.959,0-8.544-.1-9.832-.191-.811-.048-1.241-.1-2.052-1.241-.907-1.193-9.26-15.178-13.937-23.626-4.439-8.114-7.637-14.462-8.687-16.753a5.544,5.544,0,0,1-.573-2.2,5.744,5.744,0,0,1,.573-2.2c.477-1.05,5.489-10.978,8.687-16.753,4.391-7.971,12.839-22.242,13.842-23.531.716-.907.955-1.193,2-1.289,1.336-.143,7.159-.191,9.928-.191,3.2,0,8.544.048,9.785.191h.143a2.318,2.318,0,0,1,2,1.193c.955,1.241,9.26,15.178,13.937,23.626,3.389,6.157,7.4,14.08,8.687,16.753a4.586,4.586,0,0,1,0,4.439Z" transform="translate(0 -0.052)"/>
  </g>
</svg>
